<svg width="32" height="33" viewBox="0 0 32 33" fill="none" xmlns="http://www.w3.org/2000/svg">
<path d="M9.80769 7.75776H2.82489C1.81703 7.75776 1 8.57543 1 9.58409V29.6737C1 30.6822 1.81703 31.5 2.82489 31.5H17.4241C18.432 31.5 19.249 30.6822 19.249 29.6737V21.156M8.75603 26.4964H11.4934M19.7862 16.9095L12.6503 18.9501L13.6698 12.8286V3.54046C13.6698 2.99928 13.8846 2.4803 14.267 2.09764C14.6493 1.71498 15.1678 1.5 15.7086 1.5H28.9612C29.502 1.5 30.0206 1.71498 30.4029 2.09764C30.7853 2.4803 31 2.99928 31 3.54046V14.869C31 15.4102 30.7852 15.9292 30.4028 16.3119C30.0206 16.6946 29.502 16.9095 28.9612 16.9095H19.7862ZM20.3833 4.93478H23.9941V7.45495H26.6107V11.0687H23.9941V13.5889H20.3833V11.0687H17.9635V7.45495H20.3833V6.19486V4.93478Z" stroke="black" stroke-width="1.3" stroke-linecap="round" stroke-linejoin="round"/>
</svg>
