<svg width="40" height="41" viewBox="0 0 40 41" fill="none" xmlns="http://www.w3.org/2000/svg">
<path fill-rule="evenodd" clip-rule="evenodd" d="M18.1424 1.50313C24.1727 1.37443 29.4491 5.23684 33.4396 9.70185C37.1683 13.874 39.2997 19.2488 38.9658 24.8029C38.6498 30.0591 36.2027 35.35 31.7256 38.2119C27.7746 40.7376 22.7804 38.9068 18.1424 38.1142C14.6112 37.5107 11.3425 36.4937 8.56819 34.2544C5.39964 31.6968 2.49063 28.7575 1.65128 24.8029C0.602032 19.8594 0.562167 14.4813 3.49259 10.3409C6.90008 5.52661 12.1944 1.63006 18.1424 1.50313Z" fill="#FFF9E0"/>
<path d="M13.8077 11.7578H6.82489C5.81703 11.7578 5 12.5754 5 13.5841V33.6737C5 34.6822 5.81703 35.5 6.82489 35.5H21.4241C22.432 35.5 23.249 34.6822 23.249 33.6737V25.156M12.756 30.4964H15.4934M23.7862 20.9095L16.6503 22.9501L17.6698 16.8286V7.54046C17.6698 6.99928 17.8846 6.4803 18.267 6.09764C18.6493 5.71498 19.1678 5.5 19.7086 5.5H32.9612C33.502 5.5 34.0206 5.71498 34.4029 6.09764C34.7853 6.4803 35 6.99928 35 7.54046V18.869C35 19.4102 34.7852 19.9292 34.4028 20.3119C34.0206 20.6946 33.502 20.9095 32.9612 20.9095H23.7862ZM24.3833 8.93478H27.9941V11.4549H30.6107V15.0687H27.9941V17.5889H24.3833V15.0687H21.9635V11.4549H24.3833V10.1949V8.93478Z" stroke="black" stroke-width="1.3" stroke-linecap="round" stroke-linejoin="round"/>
</svg>
