<svg width="40" height="41" viewBox="0 0 40 41" fill="none" xmlns="http://www.w3.org/2000/svg">
<path fill-rule="evenodd" clip-rule="evenodd" d="M20.164 1.67242C25.1053 2.74403 25.9188 10.1756 29.3199 14.3455C32.4227 18.1497 38.2225 19.5332 38.8961 24.6387C39.6029 29.9948 36.619 35.6936 32.5093 38.5174C28.8495 41.032 24.4325 37.9824 20.164 37.5095C16.6409 37.1193 13.0675 38.0778 10.0332 36.0277C6.02443 33.3191 1.77999 29.8432 1.11443 24.6387C0.393802 19.0035 3.17765 13.5888 6.63128 9.42512C10.2207 5.09773 14.9961 0.551685 20.164 1.67242Z" fill="#E0FFE6"/>
<path fill-rule="evenodd" clip-rule="evenodd" d="M14.4009 5.16527C15.34 5.42152 16.2637 5.80094 16.8706 6.39646C16.8835 6.40908 16.8959 6.42222 16.9077 6.43583C17.8278 7.49753 18.3093 8.86447 18.2558 10.263C18.2183 11.244 17.9194 12.1898 17.3997 13.0087C17.8825 13.5459 18.3206 14.1116 18.7105 14.7087C19.4888 15.9007 20.0675 17.2071 20.428 18.6447C20.5291 18.4143 20.6383 18.187 20.7553 17.9633C21.3715 16.7848 21.9686 15.9346 22.9308 15.0792C22.8489 14.8877 22.7804 14.6904 22.7259 14.4886C22.5676 13.9019 22.5311 13.2894 22.6189 12.6882C22.7067 12.087 22.9168 11.5098 23.2365 10.9916C23.5534 10.4782 23.9713 10.0332 24.4654 9.6833C25.0184 9.25672 25.7931 9.04256 26.5441 8.92776C27.3228 8.80876 28.1774 8.78257 28.9579 8.79726C29.7417 8.81201 30.4694 8.86843 31 8.92089C31.2658 8.94717 31.4834 8.97259 31.6353 8.99154C31.7113 9.00103 31.771 9.0089 31.8121 9.01448L31.8597 9.02104L31.8726 9.02286L31.8762 9.02338L31.8773 9.02354C31.8775 9.02356 31.8779 9.02363 31.7805 9.68267C32.4498 9.7432 32.4498 9.74331 32.4498 9.74344L32.4493 9.74853L32.4481 9.76135L32.4434 9.80864C32.4392 9.8495 32.433 9.90869 32.4245 9.98397C32.4075 10.1345 32.3814 10.3496 32.3449 10.6113C32.2719 11.1336 32.1565 11.8464 31.9865 12.6038C31.8173 13.358 31.59 14.1743 31.2887 14.8963C30.9979 15.5933 30.6034 16.2887 30.0524 16.7223C29.5929 17.1157 29.0582 17.4134 28.4801 17.5976C27.8966 17.7835 27.281 17.85 26.6709 17.793C26.0606 17.736 25.4685 17.5566 24.9304 17.2659C24.4428 17.0024 24.0088 16.6525 23.6497 16.234C22.9335 16.9075 22.4629 17.5929 21.9488 18.5761C21.44 19.5493 21.0998 20.5983 20.9408 21.6795L26.2018 21.6794C26.2081 21.6794 26.2144 21.6795 26.2207 21.6797C28.0361 21.7304 29.7599 22.4805 31.0258 23.7709C32.2918 25.0613 33 26.7901 33 28.5898C33 30.3895 32.2918 32.1182 31.0258 33.4085C29.7599 34.6989 28.0361 35.4492 26.2207 35.4997C26.2144 35.4999 26.2081 35.5 26.2018 35.5H14.2501L14.2354 35.4998C12.4192 35.4605 10.69 34.7206 9.41579 33.4371C8.14162 32.1538 7.42294 30.4285 7.41261 28.6281C7.40229 26.8278 8.10115 25.0944 9.36055 23.7968C10.6199 22.4992 12.3405 21.7396 14.1562 21.6799C14.1637 21.6797 14.1711 21.6796 14.1785 21.6796L19.5061 21.6795C19.4029 19.2334 18.7276 17.1871 17.5819 15.4324C17.27 14.9548 16.9219 14.4966 16.5387 14.0563C15.5492 14.9982 14.2441 15.5484 12.8705 15.6C11.4593 15.653 10.0799 15.1758 9.00863 14.2639C8.99576 14.2529 8.9833 14.2415 8.9713 14.2296C8.36617 13.6299 7.9763 12.72 7.71087 11.7938C7.43992 10.8483 7.27347 9.79295 7.17028 8.819C7.06675 7.84186 7.02507 6.92852 7.00914 6.26061C7.00116 5.92613 6.99961 5.65196 7.00007 5.46059C7.00031 5.36487 7.00104 5.28979 7.00173 5.23815L7.00266 5.17859L7.00297 5.16264L7.00309 5.15694C7.00309 5.15679 7.00311 5.15625 7.67505 5.17147C7.65602 4.50566 7.65614 4.50565 7.65628 4.50565L7.66248 4.50548L7.67868 4.50509L7.73922 4.50383C7.79172 4.50285 7.86807 4.50169 7.96541 4.5009C8.16003 4.49933 8.43888 4.49927 8.77901 4.50519C9.45824 4.51703 10.3869 4.55284 11.3799 4.6493C12.3696 4.74544 13.4416 4.9035 14.4009 5.16527ZM7.67505 5.17147L7.65628 4.50565C7.29859 4.51569 7.01128 4.80172 7.00311 5.15625L7.67505 5.17147ZM8.34602 5.83254C8.34735 5.95141 8.34955 6.08428 8.353 6.22913C8.36836 6.87314 8.40852 7.74878 8.50717 8.67989C8.60616 9.61419 8.76224 10.5863 9.00397 11.4299C9.24729 12.2789 9.55424 12.9128 9.90481 13.2705C10.7161 13.9524 11.7559 14.3087 12.8196 14.2688C13.8661 14.2294 14.8603 13.8093 15.6129 13.0903C14.6273 12.1524 13.4664 11.2995 12.144 10.5133C11.8257 10.324 11.7225 9.91485 11.9135 9.59941C12.1045 9.28397 12.5173 9.18168 12.8356 9.37095C14.1749 10.1673 15.3802 11.0424 16.4256 12.0179C16.7196 11.4644 16.8882 10.8482 16.9125 10.2125C16.9528 9.15903 16.5937 8.12913 15.9064 7.32533C15.5469 6.98371 14.9061 6.68486 14.0441 6.44964C13.1874 6.21586 12.199 6.06741 11.2488 5.97511C10.3018 5.88313 9.4108 5.84858 8.75538 5.83716C8.60565 5.83455 8.46847 5.83315 8.34602 5.83254ZM19.5353 23.0117L14.19 23.0117C12.7282 23.0626 11.3436 23.6753 10.3294 24.7203C9.31268 25.7678 8.7485 27.1671 8.75683 28.6205C8.76517 30.074 9.34535 31.4668 10.374 32.5028C11.4009 33.5372 12.794 34.1343 14.2576 34.1678H19.5353V23.0117ZM20.8795 34.1678H26.1921C27.6543 34.1247 29.0422 33.5194 30.062 32.4799C31.084 31.4382 31.6558 30.0427 31.6558 28.5898C31.6558 27.1369 31.084 25.7412 30.062 24.6995C29.0422 23.66 27.6543 23.0548 26.192 23.0116L20.8795 23.0117V34.1678ZM24.5969 15.278C24.8634 15.6136 25.1957 15.8919 25.5738 16.0962C25.9521 16.3006 26.3682 16.4266 26.797 16.4667C27.2259 16.5068 27.6586 16.46 28.0685 16.3294C28.4787 16.1987 28.8578 15.9867 29.1826 15.7065C29.1916 15.6988 29.2007 15.6913 29.21 15.6841C29.4889 15.468 29.7785 15.0294 30.0465 14.3872C30.3066 13.7639 30.5138 13.0298 30.6743 12.3146C30.8341 11.6026 30.9437 10.9272 31.0133 10.4286C31.0214 10.3712 31.0288 10.3162 31.0358 10.2638C30.9821 10.2581 30.9256 10.2523 30.8665 10.2465C30.3597 10.1964 29.6698 10.1431 28.9324 10.1292C28.1917 10.1152 27.4218 10.1415 26.749 10.2444C26.0553 10.3504 25.5588 10.5247 25.2848 10.7395C25.2756 10.7467 25.2662 10.7536 25.2566 10.7603C24.9053 11.0073 24.6082 11.3224 24.3833 11.6867C24.1586 12.0509 24.011 12.4565 23.9493 12.879C23.8876 13.3014 23.9132 13.7319 24.0245 14.1444C24.1358 14.5568 24.3306 14.9424 24.5969 15.278ZM31.7805 9.68267L32.4498 9.74344C32.4822 9.39114 32.2305 9.07483 31.8773 9.02354L31.7805 9.68267Z" fill="black"/>
</svg>
