<svg width="40" height="41" viewBox="0 0 40 41" fill="none" xmlns="http://www.w3.org/2000/svg">
<path fill-rule="evenodd" clip-rule="evenodd" d="M21.8181 2.6876C26.6256 3.17431 31.7525 3.33653 35.1396 6.41845C38.5027 9.47848 39.1352 14.0184 38.9782 18.3014C38.8273 22.4187 37 26.0922 34.296 29.4318C30.883 33.6473 27.6439 39.6781 21.8181 39.496C15.9984 39.314 13.9645 32.6298 10.1851 28.6781C6.92649 25.271 2.43606 22.7093 1.54766 18.3014C0.49901 13.0984 0.599964 6.8308 5.08544 3.37575C9.47856 -0.00816107 16.0507 2.10371 21.8181 2.6876Z" fill="#F5EBFF"/>
<path fill-rule="evenodd" clip-rule="evenodd" d="M7.21519 10.607V32.7278C7.21519 32.9127 7.25965 33.0109 7.29511 33.0641C7.3331 33.1211 7.38811 33.1666 7.4616 33.2034C7.53747 33.2413 7.62069 33.2633 7.69008 33.2749C7.72333 33.2804 7.74971 33.283 7.7654 33.2841C7.77144 33.2845 7.77569 33.2847 7.77792 33.2848H32.2278C32.4127 33.2848 32.5109 33.2404 32.5641 33.2049C32.6211 33.1669 32.6666 33.1119 32.7034 33.0384C32.7413 32.9625 32.7633 32.8793 32.7749 32.8099C32.7804 32.7767 32.783 32.7503 32.7841 32.7346C32.7845 32.7286 32.7847 32.7243 32.7848 32.7221V10.6013C32.7848 10.4164 32.7404 10.3182 32.7049 10.265C32.6669 10.208 32.6119 10.1625 32.5384 10.1257C32.4625 10.0878 32.3793 10.0658 32.3099 10.0542C32.2767 10.0487 32.2503 10.0462 32.2346 10.045C32.2286 10.0446 32.2243 10.0444 32.2221 10.0443H7.77215C7.58733 10.0443 7.48911 10.0888 7.43593 10.1242C7.37894 10.1622 7.33336 10.2172 7.29661 10.2907C7.25868 10.3666 7.23668 10.4498 7.22512 10.5192C7.21958 10.5524 7.21704 10.5788 7.21592 10.5945C7.21549 10.6005 7.21528 10.6048 7.21519 10.607ZM32.2278 9.43671C32.2278 8.82911 32.2285 8.82911 32.2285 8.82911L32.2305 8.82912L32.2335 8.82914L32.241 8.82923C32.2466 8.82932 32.2533 8.82947 32.2612 8.82974C32.2769 8.83026 32.2971 8.83121 32.3212 8.83293C32.3692 8.83636 32.4338 8.84292 32.5097 8.85558C32.6587 8.88041 32.8666 8.93119 33.0819 9.03883C33.2995 9.14765 33.5356 9.32043 33.716 9.59097C33.8989 9.86532 34 10.2038 34 10.6013V32.7278H33.3924C34 32.7278 34 32.7278 34 32.7278L34 32.7305L34 32.7335L33.9999 32.741C33.9998 32.7466 33.9996 32.7533 33.9994 32.7612C33.9989 32.7769 33.9979 32.7971 33.9962 32.8212C33.9928 32.8692 33.9862 32.9338 33.9735 33.0097C33.9487 33.1587 33.8979 33.3666 33.7903 33.5819C33.6815 33.7995 33.5087 34.0356 33.2381 34.216C32.9638 34.3989 32.6253 34.5 32.2278 34.5H7.77215V33.8924C7.77215 34.5 7.77215 34.5 7.77215 34.5L7.76955 34.5L7.76649 34.5L7.75901 34.4999C7.75576 34.4998 7.75211 34.4998 7.74808 34.4997C7.74519 34.4996 7.74211 34.4995 7.73883 34.4994C7.72314 34.4989 7.70292 34.4979 7.67882 34.4962C7.63083 34.4928 7.56623 34.4862 7.4903 34.4735C7.34133 34.4487 7.13342 34.3979 6.91815 34.2903C6.7005 34.1815 6.46437 34.0087 6.28401 33.7381C6.10111 33.4638 6 33.1253 6 32.7278V10.6013H6.60759C6 10.6013 6 10.6013 6 10.6013L6 10.6L6.00001 10.5987L6.00002 10.5956L6.00011 10.5881C6.0002 10.5826 6.00036 10.5758 6.00062 10.5679C6.00114 10.5523 6.0021 10.532 6.00382 10.5079C6.00725 10.4599 6.01381 10.3953 6.02646 10.3194C6.05129 10.1704 6.10208 9.96253 6.20972 9.74726C6.31854 9.52961 6.49132 9.29348 6.76186 9.11312C7.0362 8.93022 7.37469 8.82911 7.77215 8.82911L32.2285 8.82911L32.2278 9.43671Z" fill="black"/>
<path fill-rule="evenodd" clip-rule="evenodd" d="M12.4304 6.5C12.7659 6.5 13.038 6.77203 13.038 7.10759V12.9304C13.038 13.2659 12.7659 13.538 12.4304 13.538C12.0948 13.538 11.8228 13.2659 11.8228 12.9304V7.10759C11.8228 6.77203 12.0948 6.5 12.4304 6.5Z" fill="black"/>
<path fill-rule="evenodd" clip-rule="evenodd" d="M27.5696 6.5C27.9052 6.5 28.1772 6.77203 28.1772 7.10759V12.9304C28.1772 13.2659 27.9052 13.538 27.5696 13.538C27.2341 13.538 26.962 13.2659 26.962 12.9304V7.10759C26.962 6.77203 27.2341 6.5 27.5696 6.5Z" fill="black"/>
<path fill-rule="evenodd" clip-rule="evenodd" d="M6 15.2595C6 14.9239 6.27203 14.6519 6.60759 14.6519H33.3924C33.728 14.6519 34 14.9239 34 15.2595C34 15.5951 33.728 15.8671 33.3924 15.8671H6.60759C6.27203 15.8671 6 15.5951 6 15.2595Z" fill="black"/>
<path fill-rule="evenodd" clip-rule="evenodd" d="M17.9945 19.6586C18.2177 19.4354 18.5203 19.3101 18.8359 19.3101H21.165C21.4806 19.3101 21.7832 19.4354 22.0064 19.6586C22.2295 19.8817 22.3549 20.1844 22.3549 20.4999V22.8037H24.6587C24.9742 22.8037 25.2769 22.9291 25.5 23.1522C25.7232 23.3754 25.8485 23.678 25.8485 23.9936V26.3227C25.8485 26.6383 25.7232 26.9409 25.5 27.1641C25.2769 27.3872 24.9742 27.5126 24.6587 27.5126H22.3549V29.8164C22.3549 30.132 22.2295 30.4346 22.0064 30.6578C21.7832 30.8809 21.4806 31.0063 21.165 31.0063H18.8359C18.5203 31.0063 18.2177 30.8809 17.9945 30.6578C17.7714 30.4346 17.646 30.132 17.646 29.8164V27.5126H15.3422C15.0266 27.5126 14.724 27.3872 14.5008 27.1641C14.2777 26.9409 14.1523 26.6383 14.1523 26.3227V23.9936C14.1523 23.678 14.2777 23.3754 14.5008 23.1522C14.724 22.9291 15.0266 22.8037 15.3422 22.8037H17.646V20.4999C17.646 20.1844 17.7714 19.8817 17.9945 19.6586ZM18.8612 20.5252V23.4113C18.8612 23.7469 18.5892 24.0189 18.2536 24.0189H15.3675V26.2974H18.2536C18.5892 26.2974 18.8612 26.5694 18.8612 26.905V29.7911H21.1397V26.905C21.1397 26.5694 21.4117 26.2974 21.7473 26.2974H24.6334V24.0189H21.7473C21.4117 24.0189 21.1397 23.7469 21.1397 23.4113V20.5252H18.8612Z" fill="black"/>
</svg>
