<svg width="28" height="29" viewBox="0 0 28 29" fill="none" xmlns="http://www.w3.org/2000/svg">
<path fill-rule="evenodd" clip-rule="evenodd" d="M1.21519 4.60703V26.7278C1.21519 26.9127 1.25965 27.0109 1.29511 27.0641C1.3331 27.1211 1.38811 27.1666 1.4616 27.2034C1.53747 27.2413 1.62069 27.2633 1.69008 27.2749C1.72333 27.2804 1.74971 27.283 1.7654 27.2841C1.77144 27.2845 1.77569 27.2847 1.77792 27.2848H26.2278C26.4127 27.2848 26.5109 27.2404 26.5641 27.2049C26.6211 27.1669 26.6666 27.1119 26.7034 27.0384C26.7413 26.9625 26.7633 26.8793 26.7749 26.8099C26.7804 26.7767 26.783 26.7503 26.7841 26.7346C26.7845 26.7286 26.7847 26.7243 26.7848 26.7221V4.60127C26.7848 4.41645 26.7404 4.31823 26.7049 4.26504C26.6669 4.20805 26.6119 4.16247 26.5384 4.12573C26.4625 4.08779 26.3793 4.0658 26.3099 4.05423C26.2767 4.04869 26.2503 4.04616 26.2346 4.04503C26.2286 4.0446 26.2243 4.0444 26.2221 4.0443H1.77215C1.58733 4.0443 1.48911 4.08876 1.43593 4.12422C1.37894 4.16221 1.33336 4.21722 1.29661 4.29071C1.25868 4.36658 1.23668 4.44981 1.22512 4.51919C1.21958 4.55244 1.21704 4.57883 1.21592 4.59452C1.21549 4.60055 1.21528 4.6048 1.21519 4.60703ZM26.2278 3.43671C26.2278 2.82911 26.2285 2.82911 26.2285 2.82911L26.2305 2.82912L26.2335 2.82914L26.241 2.82923C26.2466 2.82932 26.2533 2.82947 26.2612 2.82974C26.2769 2.83026 26.2971 2.83121 26.3212 2.83293C26.3692 2.83636 26.4338 2.84292 26.5097 2.85558C26.6587 2.88041 26.8666 2.93119 27.0819 3.03883C27.2995 3.14765 27.5356 3.32043 27.716 3.59097C27.8989 3.86532 28 4.20381 28 4.60127V26.7278H27.3924C28 26.7278 28 26.7278 28 26.7278L28 26.7305L28 26.7335L27.9999 26.741C27.9998 26.7466 27.9996 26.7533 27.9994 26.7612C27.9989 26.7769 27.9979 26.7971 27.9962 26.8212C27.9928 26.8692 27.9862 26.9338 27.9735 27.0097C27.9487 27.1587 27.8979 27.3666 27.7903 27.5819C27.6815 27.7995 27.5087 28.0356 27.2381 28.216C26.9638 28.3989 26.6253 28.5 26.2278 28.5H1.77215V27.8924C1.77215 28.5 1.77215 28.5 1.77215 28.5L1.76955 28.5L1.76649 28.5L1.75901 28.4999C1.75576 28.4998 1.75211 28.4998 1.74808 28.4997C1.74519 28.4996 1.74211 28.4995 1.73883 28.4994C1.72314 28.4989 1.70292 28.4979 1.67882 28.4962C1.63083 28.4928 1.56623 28.4862 1.4903 28.4735C1.34133 28.4487 1.13342 28.3979 0.918148 28.2903C0.7005 28.1815 0.464368 28.0087 0.284007 27.7381C0.101111 27.4638 0 27.1253 0 26.7278V4.60127H0.607595C0 4.60127 0 4.60127 0 4.60127L1.23133e-06 4.60002L5.25124e-06 4.59866L2.35763e-05 4.5956L0.00011455 4.58813C0.000204436 4.58255 0.000359692 4.5758 0.000621602 4.56795C0.00114477 4.55225 0.00209709 4.53204 0.0038186 4.50794C0.00724693 4.45994 0.0138091 4.39534 0.0264632 4.31942C0.0512915 4.17045 0.10208 3.96253 0.209715 3.74726C0.318539 3.52961 0.491318 3.29348 0.761859 3.11312C1.0362 2.93022 1.37469 2.82911 1.77215 2.82911L26.2285 2.82911L26.2278 3.43671Z" fill="black"/>
<path fill-rule="evenodd" clip-rule="evenodd" d="M6.43038 0.5C6.76595 0.5 7.03797 0.77203 7.03797 1.10759V6.93038C7.03797 7.26595 6.76595 7.53798 6.43038 7.53798C6.09481 7.53798 5.82278 7.26595 5.82278 6.93038V1.10759C5.82278 0.77203 6.09481 0.5 6.43038 0.5Z" fill="black"/>
<path fill-rule="evenodd" clip-rule="evenodd" d="M21.5696 0.5C21.9052 0.5 22.1772 0.77203 22.1772 1.10759V6.93038C22.1772 7.26595 21.9052 7.53798 21.5696 7.53798C21.2341 7.53798 20.962 7.26595 20.962 6.93038V1.10759C20.962 0.77203 21.2341 0.5 21.5696 0.5Z" fill="black"/>
<path fill-rule="evenodd" clip-rule="evenodd" d="M0 9.25949C0 8.92393 0.272029 8.6519 0.607595 8.6519H27.3924C27.728 8.6519 28 8.92393 28 9.25949C28 9.59506 27.728 9.86709 27.3924 9.86709H0.607595C0.272029 9.86709 0 9.59506 0 9.25949Z" fill="black"/>
<path fill-rule="evenodd" clip-rule="evenodd" d="M11.9945 13.6586C12.2177 13.4354 12.5203 13.3101 12.8359 13.3101H15.165C15.4806 13.3101 15.7832 13.4354 16.0064 13.6586C16.2295 13.8817 16.3549 14.1844 16.3549 14.4999V16.8037H18.6587C18.9742 16.8037 19.2769 16.9291 19.5 17.1522C19.7232 17.3754 19.8485 17.678 19.8485 17.9936V20.3227C19.8485 20.6383 19.7232 20.9409 19.5 21.1641C19.2769 21.3872 18.9742 21.5126 18.6587 21.5126H16.3549V23.8164C16.3549 24.132 16.2295 24.4346 16.0064 24.6578C15.7832 24.8809 15.4806 25.0063 15.165 25.0063H12.8359C12.5203 25.0063 12.2177 24.8809 11.9945 24.6578C11.7714 24.4346 11.646 24.132 11.646 23.8164V21.5126H9.34222C9.02664 21.5126 8.72399 21.3872 8.50085 21.1641C8.2777 20.9409 8.15234 20.6383 8.15234 20.3227V17.9936C8.15234 17.678 8.2777 17.3754 8.50085 17.1522C8.72399 16.9291 9.02664 16.8037 9.34222 16.8037H11.646V14.4999C11.646 14.1844 11.7714 13.8817 11.9945 13.6586ZM12.8612 14.5252V17.4113C12.8612 17.7469 12.5892 18.0189 12.2536 18.0189H9.36753V20.2974H12.2536C12.5892 20.2974 12.8612 20.5694 12.8612 20.905V23.7911H15.1397V20.905C15.1397 20.5694 15.4117 20.2974 15.7473 20.2974H18.6334V18.0189H15.7473C15.4117 18.0189 15.1397 17.7469 15.1397 17.4113V14.5252H12.8612Z" fill="black"/>
</svg>
