<svg width="40" height="40" viewBox="0 0 40 40" fill="none" xmlns="http://www.w3.org/2000/svg">
<path fill-rule="evenodd" clip-rule="evenodd" d="M16.2532 1.13221C20.9423 1.35283 25.3172 2.96251 29.0582 6.25269C33.533 10.1883 38.6682 14.6131 38.981 21.1212C39.3016 27.7921 35.5321 34.3608 30.5717 37.747C26.285 40.6735 21.1412 37.6979 16.2532 36.6366C12.7 35.8652 9.00444 35.4739 6.44594 32.5088C3.88529 29.5412 3.47925 25.2611 2.86541 21.1212C2.04842 15.6112 -0.589353 9.4103 2.36663 4.99681C5.40437 0.461248 11.309 0.899572 16.2532 1.13221Z" fill="#E8F1FF"/>
<path fill-rule="evenodd" clip-rule="evenodd" d="M16.2949 11.0539C16.5557 10.7989 16.9093 10.6557 17.2781 10.6557H22.7219C23.0907 10.6557 23.4444 10.7989 23.7052 11.0539C23.9659 11.3089 24.1124 11.6548 24.1124 12.0154V14.6482H26.8047C27.1735 14.6482 27.5272 14.7915 27.788 15.0465C28.0488 15.3015 28.1953 15.6473 28.1953 16.008V21.3314C28.1953 21.692 28.0488 22.0379 27.788 22.2929C27.5272 22.5479 27.1735 22.6912 26.8047 22.6912H24.1124V25.3239C24.1124 25.6846 23.9659 26.0304 23.7052 26.2854C23.4444 26.5404 23.0907 26.6837 22.7219 26.6837H17.2781C16.9093 26.6837 16.5557 26.5404 16.2949 26.2854C16.0341 26.0304 15.8876 25.6846 15.8876 25.3239V22.6912H13.1953C12.8265 22.6912 12.4728 22.5479 12.212 22.2929C11.9513 22.0379 11.8048 21.692 11.8048 21.3314V16.008C11.8048 15.6473 11.9513 15.3015 12.212 15.0465C12.4728 14.7915 12.8265 14.6482 13.1953 14.6482H15.8876V12.0154C15.8876 11.6548 16.0341 11.3089 16.2949 11.0539ZM17.3077 12.0444V15.3426C17.3077 15.726 16.9898 16.0369 16.5977 16.0369H13.2249V21.3024H16.5977C16.9898 21.3024 17.3077 21.6133 17.3077 21.9968V25.295H22.6923V21.9968C22.6923 21.6133 23.0102 21.3024 23.4024 21.3024H26.7752V16.0369H23.4024C23.0102 16.0369 22.6923 15.726 22.6923 15.3426V12.0444H17.3077Z" fill="black"/>
<path fill-rule="evenodd" clip-rule="evenodd" d="M20 4.00138C24.5609 3.96058 29.0828 4.82497 33.2922 6.5423L33.2963 6.54395C33.8001 6.75309 34.2301 7.1022 34.5329 7.54802C34.8358 7.99383 34.9982 8.51676 35 9.05197L35 9.0543L35 19.2261C34.9583 22.7268 33.8174 26.1304 31.7319 28.976C29.6474 31.8201 26.7199 33.9695 23.3454 35.1333L21.8235 35.6829C20.6463 36.1057 19.3538 36.1057 18.1766 35.6829L16.6547 35.1333C13.2802 33.9695 10.3526 31.8201 8.26815 28.976C6.18263 26.1304 5.04178 22.7268 5.0001 19.2261L5 19.218L5.00005 9.05197C5.00188 8.51676 5.16429 7.99383 5.46714 7.54802C5.76999 7.1022 6.19997 6.75309 6.70379 6.54396L6.70783 6.54229C10.9173 4.82496 15.4392 3.96058 20 4.00138ZM7.25686 7.82304C7.00968 7.92604 6.79873 8.09756 6.65004 8.31643C6.50119 8.53556 6.42127 8.79253 6.42016 9.05558V19.2139C6.45928 22.4285 7.50729 25.5539 9.42243 28.167C11.3384 30.7812 14.0296 32.7565 17.1317 33.8253L17.1417 33.8288L18.6661 34.3793C19.5271 34.6885 20.4727 34.6886 21.3337 34.3794L22.8583 33.8288L22.8684 33.8253C25.9704 32.7565 28.6617 30.7812 30.5776 28.167C32.4928 25.5539 33.5408 22.4286 33.5799 19.214L33.5799 9.05662L33.5799 9.05589C33.5788 8.79273 33.4989 8.53564 33.35 8.31643C33.2013 8.09756 32.9904 7.92605 32.7432 7.82304C28.7097 6.17784 24.3768 5.35016 20.0067 5.39009H19.9934C15.6233 5.35016 11.2903 6.17784 7.25686 7.82304Z" fill="black"/>
</svg>
