<svg width="35" height="30" viewBox="0 0 35 30" fill="none" xmlns="http://www.w3.org/2000/svg">
<path d="M8.1573 22.5441C6.80899 21.0882 6 19.5 6 16.8529C6 12.2206 9.37079 8.11765 14.0899 6L15.3034 7.72059C10.8539 10.1029 9.91011 13.1471 9.64045 15.1324C10.3146 14.7353 11.2584 14.6029 12.2022 14.7353C14.6292 15 16.5169 16.8529 16.5169 19.3676C16.5169 20.5588 15.9775 21.75 15.1685 22.6765C14.2247 23.6029 13.1461 24 11.7978 24C10.3146 24 8.96629 23.3382 8.1573 22.5441ZM21.6405 22.5441C20.2921 21.0882 19.4831 19.5 19.4831 16.8529C19.4831 12.2206 22.8539 8.11765 27.573 6L28.7865 7.72059C24.3371 10.1029 23.3933 13.1471 23.1236 15.1324C23.7978 14.7353 24.7416 14.6029 25.6854 14.7353C28.1124 15 30 16.8529 30 19.3676C30 20.5588 29.4607 21.75 28.6517 22.6765C27.8427 23.6029 26.6292 24 25.2809 24C23.7978 24 22.4494 23.3382 21.6405 22.5441Z" fill="black"/>
</svg>
