<svg width="20" height="20" viewBox="0 0 20 20" fill="none" xmlns="http://www.w3.org/2000/svg">
<rect width="20" height="20" rx="6" fill="#F6F6F6"/>
<path d="M13.4997 3H6.49991C4.57513 3 3 4.57513 3 6.49991V13.5001C3 15.4244 4.57513 17 6.49991 17H13.4997C15.4245 17 16.9997 15.4244 16.9997 13.5001V6.49991C16.9997 4.57513 15.4245 3 13.4997 3ZM15.833 13.5001C15.833 14.7863 14.7867 15.8333 13.4997 15.8333H6.49991C5.21353 15.8333 4.1667 14.7863 4.1667 13.5001V6.49991C4.1667 5.21335 5.21353 4.1667 6.49991 4.1667H13.4997C14.7867 4.1667 15.833 5.21335 15.833 6.49991V13.5001Z" fill="url(#paint0_linear_875_150)"/>
<path d="M13.792 7.08318C14.2752 7.08318 14.667 6.69144 14.667 6.2082C14.667 5.72496 14.2752 5.33322 13.792 5.33322C13.3088 5.33322 12.917 5.72496 12.917 6.2082C12.917 6.69144 13.3088 7.08318 13.792 7.08318Z" fill="url(#paint1_linear_875_150)"/>
<path d="M9.9998 6.49989C8.06644 6.49989 6.49989 8.06661 6.49989 9.9998C6.49989 11.9323 8.06644 13.5001 9.9998 13.5001C11.9326 13.5001 13.4997 11.9323 13.4997 9.9998C13.4997 8.06661 11.9326 6.49989 9.9998 6.49989ZM9.9998 12.3334C8.71129 12.3334 7.66658 11.2887 7.66658 9.9998C7.66658 8.71095 8.71129 7.66658 9.9998 7.66658C11.2883 7.66658 12.333 8.71095 12.333 9.9998C12.333 11.2887 11.2883 12.3334 9.9998 12.3334Z" fill="url(#paint2_linear_875_150)"/>
<defs>
<linearGradient id="paint0_linear_875_150" x1="17.7496" y1="3.75" x2="2.24971" y2="16.7496" gradientUnits="userSpaceOnUse">
<stop stop-color="#FF0080"/>
<stop offset="1" stop-color="#FFCB05"/>
</linearGradient>
<linearGradient id="paint1_linear_875_150" x1="17.7496" y1="3.75" x2="2.24971" y2="16.7496" gradientUnits="userSpaceOnUse">
<stop stop-color="#FF0080"/>
<stop offset="1" stop-color="#FFCB05"/>
</linearGradient>
<linearGradient id="paint2_linear_875_150" x1="17.7496" y1="3.75" x2="2.24971" y2="16.7496" gradientUnits="userSpaceOnUse">
<stop stop-color="#FF0080"/>
<stop offset="1" stop-color="#FFCB05"/>
</linearGradient>
</defs>
</svg>
