<svg width="30" height="60" viewBox="0 0 30 60" fill="none" xmlns="http://www.w3.org/2000/svg">
<path d="M7.37787 29.6589L20.9555 17.3209C21.182 17.1149 21.483 17 21.796 17C22.109 17 22.41 17.1149 22.6366 17.3209L22.6512 17.3348C22.7614 17.4347 22.8491 17.5549 22.9091 17.6881C22.9691 17.8213 23 17.9647 23 18.1097C23 18.2547 22.9691 18.3981 22.9091 18.5314C22.8491 18.6646 22.7614 18.7848 22.6512 18.8846L9.86536 30.5023L22.6512 42.1154C22.7614 42.2152 22.8491 42.3354 22.9091 42.4686C22.9691 42.6019 23 42.7453 23 42.8903C23 43.0353 22.9691 43.1787 22.9091 43.3119C22.8491 43.4451 22.7614 43.5653 22.6512 43.6652L22.6366 43.6791C22.41 43.8851 22.109 44 21.796 44C21.483 44 21.182 43.8851 20.9555 43.6791L7.37788 31.3411C7.25847 31.2326 7.1634 31.1021 7.09845 30.9575C7.03349 30.813 7 30.6573 7 30.5C7 30.3427 7.03349 30.187 7.09845 30.0425C7.1634 29.8979 7.25846 29.7674 7.37787 29.6589Z" fill="#8DA2A8"/>
</svg>
