<svg width="35" height="35" viewBox="0 0 35 35" fill="none" xmlns="http://www.w3.org/2000/svg">
<rect width="35" height="35" rx="8" fill="#F6F6F6"/>
<path d="M19.8847 16.0614L17.4383 19.5321L13.8207 22.9902C12.4753 21.3474 11.0061 19.7561 10.1104 17.8314L12.0603 14.9616L15.051 12.1897C14.0514 13.3765 14.1261 15.122 15.275 16.2257C16.5041 17.4065 18.4964 17.4065 19.7255 16.2257C19.7806 16.1728 19.8337 16.118 19.8847 16.0614Z" fill="#FFCB05"/>
<path d="M19.9413 15.9963C20.9496 14.809 20.8781 13.0575 19.7255 11.9508C18.4964 10.77 16.5041 10.77 15.275 11.9508C15.2239 12 15.1745 12.0508 15.127 12.1032L17.1901 8.88101L19.9892 6.54517C22.0798 7.18096 23.809 8.5966 24.8073 10.4366L22.7653 13.5999L19.9413 15.9963Z" fill="#4285F4"/>
<path d="M15.0506 12.1898L10.1098 17.8316C9.61981 16.7796 9.30125 15.6281 9.26838 14.3139C9.26589 14.2388 9.26464 14.1637 9.26465 14.0886C9.26465 12.1549 9.98681 10.3824 11.1867 9.00806L15.0506 12.1898Z" fill="#DA2F2A"/>
<path d="M15.0506 12.1898L11.1865 9.0078C12.6974 7.27723 14.9647 6.17651 17.5 6.17651C18.3676 6.17651 19.2039 6.30549 19.9892 6.54452L15.0506 12.1898Z" fill="#4285F4"/>
<path d="M25.7354 14.0877C25.7354 12.7706 25.4003 11.5285 24.8076 10.436L13.8203 22.9902C15.0686 24.5157 16.2093 26.0858 16.6833 28.0085C16.6985 28.0701 16.7148 28.142 16.7322 28.2229C16.9041 29.0229 18.0965 29.0229 18.2683 28.2229C18.2857 28.142 18.3021 28.0701 18.3173 28.0085C19.581 22.8824 25.5829 20.2627 25.7319 14.3135C25.734 14.2385 25.7354 14.1632 25.7354 14.0877Z" fill="#60A850"/>
</svg>
