<svg width="35" height="35" viewBox="0 0 35 35" fill="none" xmlns="http://www.w3.org/2000/svg">
<g clip-path="url(#clip0_599_329)">
<path d="M35 0H0V35H35V0Z" fill="#B6F7B8"/>
<path fill-rule="evenodd" clip-rule="evenodd" d="M0 0H35V11.4844L0 6.01563V0Z" fill="#FFECC0"/>
<path fill-rule="evenodd" clip-rule="evenodd" d="M0 31.1719L35 25.7031V35H0V31.1719Z" fill="#EDF9DE"/>
<path fill-rule="evenodd" clip-rule="evenodd" d="M0 5.32656L12.2172 7.23515C13.7375 6.27265 15.5477 5.74218 17.5 5.74218C20.207 5.74218 22.6352 6.7539 24.4016 8.53125C24.6258 8.75546 24.8336 8.99062 25.0305 9.23125L35 10.7953V12.1789L26.0477 10.7789C26.7148 12.0531 27.0703 13.475 27.0703 14.9297C27.0703 16.8055 26.6492 18.6758 25.7852 20.5516L25.7578 20.6062L25.3914 21.3937H24.5219C22.7227 21.3937 21.5305 21.9297 20.7539 22.8867C20.1414 23.6359 19.7859 24.6422 19.6711 25.7469L19.6656 25.7797L19.6492 25.9547L19.6437 26.0312L19.6273 26.1789C19.5836 26.6711 19.5508 27.0867 19.5344 27.4258L35 25.0141V26.3977L0 31.8664V30.4828L15.4875 28.0602L15.482 27.7484V27.5461C15.4656 27.1687 15.4328 26.6875 15.3781 26.1023L15.3672 25.993L15.3508 25.8016C15.2414 24.6969 14.8914 23.6742 14.2789 22.9141C13.5078 21.957 12.3266 21.4102 10.5438 21.3992H9.61953L9.25313 20.6117C8.36719 18.7141 7.94063 16.8273 7.94063 14.9352C7.94063 12.5508 8.90859 10.2484 10.6094 8.54218C10.6586 8.49297 10.7078 8.44375 10.757 8.39453L0 6.71015V5.32656Z" fill="white"/>
<path fill-rule="evenodd" clip-rule="evenodd" d="M17.5 7.10938C22.3836 7.10938 25.7031 10.8719 25.7031 14.9297C25.7031 16.5594 25.3477 18.2547 24.5164 20.032C19.7094 20.032 18.5227 23.4773 18.2984 25.643L18.282 25.7852C18.2055 26.5563 18.1617 27.1797 18.1508 27.6445L16.8492 27.8469V27.8031C16.8438 27.3109 16.8 26.6273 16.7125 25.7414L16.707 25.7031C16.4992 23.543 15.3398 20.0266 10.4836 20.0266C9.65234 18.2547 9.29688 16.5594 9.29688 14.9297C9.29688 10.8719 12.6109 7.10938 17.5 7.10938Z" fill="#4285F4"/>
</g>
<defs>
<clipPath id="clip0_599_329">
<rect width="35" height="35" rx="4.25" fill="white"/>
</clipPath>
</defs>
</svg>
