<svg width="158" height="54" viewBox="0 0 158 54" fill="none" xmlns="http://www.w3.org/2000/svg">
<path d="M77.0826 40.9401V46.822C77.0826 47.3632 76.6735 47.8045 76.1711 47.8045H74.1269C73.6246 47.8045 73.2154 47.3632 73.2154 46.822V44.5565H63.6426V46.822C63.6426 47.3632 63.2329 47.8045 62.7311 47.8045H60.6649C60.1629 47.8045 59.7535 47.3632 59.7535 46.822V40.9401H60.2877C61.1711 40.9248 61.7942 40.2719 62.1575 38.9821C62.5208 37.6921 62.7453 35.8339 62.8305 33.4074L62.9691 29.3781C62.9871 28.85 63.3895 28.4318 63.8799 28.4318H74.1415C74.6436 28.4318 75.053 28.8733 75.053 29.4144V40.9401H77.0826ZM66.5271 33.7992C66.4702 35.519 66.3418 36.978 66.1424 38.1759C65.9432 39.3736 65.637 40.2951 65.2237 40.9401H70.8861V32.0486H66.591L66.5271 33.7992ZM86.4632 44.8791C84.8822 44.8791 83.4611 44.5182 82.2003 43.7965C80.9398 43.0746 79.9498 42.0765 79.2302 40.8017C78.5111 39.5272 78.1514 38.0914 78.1514 36.4942C78.1514 34.8972 78.5111 33.4613 79.2302 32.1867C79.9498 30.9121 80.9398 29.9138 82.2003 29.1921C83.4611 28.4704 84.8822 28.1094 86.4632 28.1094C88.0445 28.1094 89.4655 28.4704 90.7264 29.1921C91.9869 29.9138 92.977 30.9121 93.6963 32.1867C94.4159 33.4613 94.7754 34.8972 94.7754 36.4942C94.7754 38.0914 94.4159 39.5272 93.6963 40.8017C92.977 42.0765 91.9869 43.0746 90.7264 43.7965C89.4655 44.5182 88.0445 44.8791 86.4632 44.8791ZM86.4632 41.1013C87.2182 41.1013 87.9021 40.9092 88.5146 40.5254C89.1275 40.1415 89.6114 39.6002 89.9677 38.9014C90.324 38.2026 90.502 37.4003 90.502 36.4942C90.502 35.5882 90.324 34.7857 89.9677 34.087C89.6114 33.3884 89.1275 32.847 88.5146 32.4632C87.9021 32.0792 87.2182 31.8872 86.4632 31.8872C85.7084 31.8872 85.0246 32.0792 84.4118 32.4632C83.7996 32.847 83.315 33.3884 82.9593 34.087C82.6029 34.7857 82.4248 35.5882 82.4248 36.4942C82.4248 37.4003 82.6029 38.2026 82.9593 38.9014C83.315 39.6002 83.7996 40.1415 84.4118 40.5254C85.0246 40.9092 85.7084 41.1013 86.4632 41.1013ZM103.088 38.3832H101.164V43.5739C101.164 44.1152 100.755 44.5565 100.253 44.5565H97.8665C97.3641 44.5565 96.9548 44.1152 96.9548 43.5739V29.4144C96.9548 28.8733 97.3641 28.4318 97.8665 28.4318H100.253C100.755 28.4318 101.164 28.8733 101.164 29.4144V34.6976H103.194L106.496 28.9004C106.666 28.6008 106.946 28.4318 107.273 28.4318H109.531C109.874 28.4318 110.167 28.6205 110.332 28.9452C110.495 29.27 110.482 29.6387 110.295 29.9488L106.528 36.2178L110.403 43.0621C110.58 43.3736 110.586 43.7365 110.42 44.0548C110.255 44.3732 109.964 44.5565 109.626 44.5565H107.004C106.673 44.5565 106.389 44.382 106.22 44.0752L103.088 38.3832ZM123.947 32.0486H120.286V43.5739C120.286 44.1149 119.876 44.5565 119.375 44.5565H117.03C116.529 44.5565 116.119 44.1152 116.119 43.5739V32.0486H112.436C111.935 32.0486 111.525 31.6072 111.525 31.0659V29.4144C111.525 28.8733 111.934 28.4318 112.436 28.4318H123.947C124.449 28.4318 124.858 28.8734 124.858 29.4144V31.0659C124.858 31.6069 124.449 32.0486 123.947 32.0486ZM133.94 44.8791C132.358 44.8791 130.938 44.5182 129.677 43.7965C128.416 43.0746 127.426 42.0765 126.707 40.8017C125.988 39.5272 125.628 38.0914 125.628 36.4942C125.628 34.8972 125.988 33.4613 126.707 32.1867C127.426 30.9121 128.416 29.9138 129.677 29.1921C130.938 28.4704 132.358 28.1094 133.94 28.1094C135.521 28.1094 136.942 28.4704 138.203 29.1921C139.463 29.9138 140.453 30.9121 141.173 32.1867C141.892 33.4613 142.252 34.8972 142.252 36.4942C142.252 38.0914 141.892 39.5272 141.173 40.8017C140.453 42.0765 139.463 43.0746 138.203 43.7965C136.942 44.5182 135.521 44.8791 133.94 44.8791ZM133.94 41.1013C134.695 41.1013 135.379 40.9092 135.991 40.5254C136.604 40.1415 137.088 39.6002 137.444 38.9014C137.801 38.2026 137.978 37.4003 137.978 36.4942C137.978 35.5882 137.801 34.7857 137.444 34.087C137.088 33.3884 136.604 32.847 135.991 32.4632C135.379 32.0792 134.695 31.8872 133.94 31.8872C133.185 31.8872 132.501 32.0792 131.889 32.4632C131.276 32.847 130.792 33.3884 130.436 34.087C130.08 34.7857 129.901 35.5882 129.901 36.4942C129.901 37.4003 130.08 38.2026 130.436 38.9014C130.792 39.6002 131.276 40.1415 131.889 40.5254C132.501 40.9092 133.185 41.1013 133.94 41.1013ZM151.355 28.4318C152.708 28.4318 153.883 28.6738 154.88 29.1576C155.877 29.6413 156.647 30.3324 157.188 31.2307C157.729 32.1291 158 33.1849 158 34.3981C158 35.6111 157.729 36.6631 157.188 37.554C156.647 38.4445 155.877 39.1318 154.88 39.6155C153.883 40.0992 152.708 40.3411 151.355 40.3411H148.748V43.5739C148.748 44.1149 148.338 44.5565 147.836 44.5565H145.428C144.927 44.5565 144.517 44.1152 144.517 43.5739V29.4144C144.517 28.8733 144.926 28.4318 145.428 28.4318H151.355ZM151.098 36.7476C151.967 36.7476 152.622 36.5443 153.064 36.1373C153.506 35.7302 153.727 35.1505 153.727 34.3981C153.727 33.6456 153.506 33.0619 153.064 32.6473C152.622 32.2327 151.967 32.0253 151.098 32.0253H148.748V36.7476H151.098Z" fill="#717070"/>
<path d="M74.495 21.3404L74.4761 13.7744L70.8945 20.2515C70.7254 20.5573 70.4417 20.731 70.1116 20.731H69.2597C68.9334 20.731 68.6529 20.5615 68.4825 20.2615L64.9029 13.9587V21.3379C64.9029 21.879 64.4938 22.3204 63.9914 22.3204H61.9254C61.4234 22.3204 61.0139 21.879 61.0139 21.3379V7.17828C61.0139 6.63714 61.4234 6.19581 61.9254 6.19581H63.985C64.3121 6.19581 64.5933 6.36607 64.7634 6.66734L69.7535 15.5019L74.617 6.67642C74.7862 6.37005 75.0696 6.19581 75.4003 6.19581H77.4559C77.9567 6.19581 78.3656 6.63531 78.367 7.1756L78.4051 21.3351C78.4057 21.6061 78.3161 21.8398 78.1386 22.0316C77.9612 22.2235 77.745 22.3204 77.4937 22.3204H75.4065C74.9052 22.3204 74.4962 21.8806 74.495 21.3404ZM91.912 19.1875H85.5869L84.642 21.7063C84.4999 22.0852 84.1766 22.3204 83.7974 22.3204H81.4942C81.1769 22.3204 80.9037 22.161 80.7306 21.8744C80.5574 21.5876 80.532 21.2541 80.6601 20.9411L86.4583 6.78161C86.6073 6.4174 86.9228 6.19581 87.292 6.19581H90.2719C90.6404 6.19581 90.9558 6.41684 91.1054 6.78034L96.9218 20.9399C97.0507 21.253 97.0258 21.5868 96.8523 21.8738C96.6792 22.1609 96.4061 22.3204 96.0883 22.3204H93.7015C93.3224 22.3204 92.9991 22.0852 92.8568 21.7063L91.912 19.1875ZM90.6724 15.8247L88.7496 10.6647L86.8266 15.8247H90.6724ZM112.679 21.3404L112.66 13.7744L109.079 20.2515C108.91 20.5573 108.626 20.731 108.296 20.731H107.444C107.118 20.731 106.837 20.5615 106.667 20.2615L103.087 13.9587V21.3379C103.087 21.879 102.678 22.3204 102.176 22.3204H100.11C99.6076 22.3204 99.1982 21.879 99.1982 21.3379V7.17828C99.1982 6.63714 99.6076 6.19581 100.11 6.19581H102.169C102.496 6.19581 102.778 6.36607 102.948 6.66734L107.938 15.5019L112.801 6.67642C112.97 6.37005 113.254 6.19581 113.585 6.19581H115.64C116.141 6.19581 116.55 6.63531 116.552 7.1756L116.589 21.3351C116.59 21.6061 116.501 21.8398 116.323 22.0316C116.146 22.2235 115.929 22.3204 115.678 22.3204H113.59C113.09 22.3204 112.68 21.8806 112.679 21.3404ZM130.096 19.1875H123.771L122.826 21.7063C122.684 22.0852 122.361 22.3204 121.982 22.3204H119.678C119.361 22.3204 119.088 22.161 118.915 21.8744C118.742 21.5876 118.717 21.2541 118.845 20.9411L124.643 6.78161C124.792 6.4174 125.107 6.19581 125.476 6.19581H128.456C128.825 6.19581 129.14 6.41684 129.289 6.78034L135.106 20.9399C135.235 21.253 135.21 21.5868 135.037 21.8738C134.864 22.1609 134.591 22.3204 134.273 22.3204H131.886C131.507 22.3204 131.183 22.0852 131.041 21.7063L130.096 19.1875ZM128.857 15.8247L126.934 10.6647L125.011 15.8247H128.857Z" fill="#1B8BAC"/>
<path fill-rule="evenodd" clip-rule="evenodd" d="M49.3582 32.1446L39.1033 32.1433C38.8783 31.494 38.2526 30.5534 37.9009 29.9143C37.1967 28.6341 34.7952 24.0618 34.2009 23.2256L28.7247 32.0428C28.1533 32.9402 27.5626 34.1814 26.9031 34.9725C26.6834 34.7407 26.2073 33.8919 26.0003 33.5527L20.543 24.6564C20.3018 24.2554 19.8814 23.485 19.6243 23.1933C19.4176 23.4473 19.1778 23.9818 18.9999 24.2815C18.7862 24.6411 18.5818 25.018 18.3884 25.3831C17.4436 27.1656 15.4236 30.5804 14.7094 32.1372L10.3444 32.1501C10.5355 33.0001 14.7575 37.3706 15.9986 38.5951C17.3679 39.9459 18.7825 41.1653 20.204 42.4453C21.0394 43.1974 26.2771 47.5867 26.9031 47.8268C27.8805 47.2815 32.4697 43.4408 33.3804 42.6471C34.8735 41.3456 36.52 39.9218 37.923 38.5015C38.4091 37.9965 38.8951 37.4914 39.3812 36.9863L39.9893 36.3338L40.6112 36.3318L46.3241 36.3622C46.0719 36.7632 45.6474 37.207 45.3434 37.6041C45.0315 38.0118 44.5921 38.4784 44.2552 38.8584C42.8396 40.4541 41.2377 42.1461 39.6672 43.5424C38.8242 44.2918 38.1066 45.024 37.2277 45.7653C34.7503 47.8546 32.2069 50.048 29.5734 52.0003C28.7853 52.5846 27.7347 53.5368 26.9031 54C26.6417 53.8689 26.6462 53.8416 26.4347 53.669C26.2794 53.5422 26.1222 53.4404 25.9545 53.3056L21.3883 49.7724C20.74 49.2606 20.1834 48.8051 19.5954 48.3235C16.5113 45.798 13.7538 43.3212 11.0806 40.5165C10.5337 39.9426 9.91269 39.2797 9.51592 38.8211C6.74027 35.6112 4.0576 32.1014 2.26617 28.0356C2.10573 27.672 1.90846 27.1525 1.75604 26.8635L11.8298 26.833C12.0726 26.5633 12.5865 25.5277 12.7853 25.1517L15.6034 20.0287C16.1169 19.1355 19.0582 13.4781 19.4006 13.1883C20.0902 14.1226 20.6198 15.1748 21.2465 16.178C21.8689 17.1745 22.5128 18.2055 23.1223 19.2261C23.4026 19.6952 26.6042 25.0575 26.9031 25.3105C27.3771 24.8291 28.3464 23.0156 28.7832 22.3238C29.398 21.3497 33.9883 13.6831 34.4055 13.1904C34.8279 13.5926 41.422 26.2278 41.9763 26.8287L46.8871 26.8334C47.4358 26.0898 48.3958 23.2663 48.6633 22.1309C49.1221 20.1835 49.3186 18.2045 49.0289 16.084C48.7655 14.1548 48.2639 12.5267 47.4955 11.0408C44.0168 4.31496 36.2232 3.39472 30.4335 7.26551C29.4535 7.92078 28.5875 8.59632 27.7494 9.36926C27.4924 9.6063 27.173 9.93295 26.9031 10.1387C26.6507 9.95904 26.4251 9.70073 26.1693 9.47049C24.328 7.81261 22.4714 6.46081 20.0805 5.66675C17.1373 4.68923 13.4489 4.79201 10.8639 6.24035C8.48804 7.57159 6.79195 9.5961 5.66544 12.4756C4.79287 14.7058 4.45818 17.6497 4.76354 20.1099C4.87046 20.9724 4.98816 21.9057 5.23001 22.639L0.436601 22.6519C-0.0117166 21.6395 -0.0655062 17.6034 0.0564036 16.2891C0.993938 6.20365 8.02762 -0.768277 17.6265 0.0721461C19.4953 0.235751 21.2833 0.800862 22.8264 1.53439C23.9541 2.07043 24.9857 2.6877 25.9465 3.46362C26.2792 3.73228 26.5628 4.00193 26.9031 4.21671C27.2356 4.01356 28.3346 3.08169 29.3126 2.45704C34.0203 -0.550364 40.6217 -0.913157 45.4999 2.01514C47.486 3.20758 48.6687 4.45616 49.9459 6.0423C52.2667 8.9241 54.1484 14.0949 53.7892 19.3715C53.4979 23.6482 52.1165 27.2769 50.1421 30.7935C49.9012 31.2228 49.5078 31.7698 49.3582 32.1446Z" fill="#1B8BAC"/>
</svg>
