<svg width="35" height="35" viewBox="0 0 35 35" fill="none" xmlns="http://www.w3.org/2000/svg">
<path d="M17.5094 29.5918L4.71483 18.4526C-2.23879 11.7691 7.98303 -1.06333 17.5094 9.31844C27.0359 -1.06333 37.2114 11.8136 30.3041 18.4526L17.5094 29.5918Z" fill="#FFC8C8"/>
<path fill-rule="evenodd" clip-rule="evenodd" d="M5.00778 18.1569L17.5094 29.0411L30.0111 18.1569C33.2558 15.0303 32.5094 10.4172 29.7696 7.79179C28.4089 6.48785 26.576 5.69984 24.529 5.83937C22.4819 5.97891 20.1563 7.05095 17.8279 9.58842C17.7473 9.67627 17.6313 9.7266 17.5094 9.7266C17.3876 9.7266 17.2716 9.67627 17.191 9.58842C14.8626 7.05101 12.5339 5.97591 10.4828 5.83306C8.43166 5.69022 6.59457 6.47461 5.23133 7.77566C2.48747 10.3944 1.73913 15.0073 5.00778 18.1569ZM17.5094 8.71005C15.1739 6.29128 12.7703 5.17391 10.5442 5.01888C8.21669 4.85679 6.14673 5.75163 4.63291 7.1964C1.62471 10.0674 0.738023 15.2075 4.41455 18.7412C4.4195 18.746 4.42456 18.7506 4.42974 18.7551L17.2244 29.8944C17.3862 30.0352 17.6327 30.0352 17.7945 29.8944L30.5892 18.7551C30.5943 18.7506 30.5994 18.746 30.6044 18.7412C34.2586 15.2289 33.3699 10.0891 30.3693 7.21369C28.8587 5.76624 26.7932 4.86666 24.4689 5.0251C22.2458 5.17664 19.8447 6.29154 17.5094 8.71005Z" fill="black"/>
<path fill-rule="evenodd" clip-rule="evenodd" d="M15.4826 12.8364C15.6398 12.846 15.7823 12.9284 15.8649 13.0573L19.0915 18.0936L21.3501 15.4076C21.4422 15.2981 21.5809 15.2344 21.7275 15.2344H26.7213C26.9893 15.2344 27.2066 15.4432 27.2066 15.7008C27.2066 15.9585 26.9893 16.1673 26.7213 16.1673H21.9593L19.4153 19.1927C19.3163 19.3104 19.1641 19.3747 19.0069 19.365C18.8497 19.3553 18.7072 19.273 18.6246 19.1441L15.398 14.1078L13.1395 16.7938C13.0474 16.9033 12.9086 16.967 12.762 16.967H8.27927C8.01124 16.967 7.79395 16.7582 7.79395 16.5005C7.79395 16.2429 8.01124 16.0341 8.27927 16.0341H12.5303L15.0742 13.0087C15.1732 12.8909 15.3255 12.8267 15.4826 12.8364Z" fill="black"/>
</svg>
