<svg width="60" height="60" viewBox="0 0 60 60" fill="none" xmlns="http://www.w3.org/2000/svg">
<rect width="60" height="60" rx="30" fill="#1B8BAC"/>
<path d="M42.5756 35.5284C41.8799 35.1945 38.4849 33.5253 37.8727 33.2749C37.2326 33.0524 36.7874 32.9411 36.3143 33.6088C35.8413 34.3043 34.5333 35.8622 34.1438 36.3074C33.7542 36.7803 33.3367 36.836 32.641 36.4743C31.9454 36.1404 29.7191 35.3893 27.1033 33.0524C25.044 31.2162 23.6805 28.9628 23.2631 28.2673C22.8735 27.5718 23.2074 27.2101 23.5692 26.8484C23.8753 26.5424 24.2649 26.0416 24.5988 25.6521C24.9327 25.2627 25.0719 24.9566 25.2945 24.5115C25.5171 24.0386 25.4058 23.6491 25.2388 23.3152C25.0719 22.9814 23.6805 19.5873 23.1239 18.1963C22.5674 16.8609 21.983 17.0278 21.5656 17H20.2298C19.7568 17 19.0332 17.1669 18.3932 17.8624C17.781 18.5579 16 20.2272 16 23.6213C16 27.0153 18.4767 30.2982 18.8106 30.7433C19.1445 31.2162 23.6805 38.1713 30.5818 41.1481C32.2236 41.8714 33.5037 42.2887 34.5055 42.5948C36.1474 43.1234 37.6501 43.0399 38.8467 42.873C40.1824 42.6782 42.9373 41.2038 43.4939 39.5902C44.0783 37.9766 44.0783 36.6134 43.8835 36.3074C43.6887 36.0013 43.2713 35.8622 42.5756 35.5284Z" fill="white"/>
</svg>
