<svg width="30" height="60" viewBox="0 0 30 60" fill="none" xmlns="http://www.w3.org/2000/svg">
<path d="M22.6221 29.6589L9.0445 17.3209C8.81795 17.1149 8.51697 17 8.20397 17C7.89097 17 7.58999 17.1149 7.36344 17.3209L7.34882 17.3348C7.23861 17.4347 7.15086 17.5549 7.09089 17.6881C7.03093 17.8213 7 17.9647 7 18.1097C7 18.2547 7.03093 18.3981 7.09089 18.5314C7.15086 18.6646 7.23861 18.7848 7.34882 18.8846L20.1346 30.5023L7.34882 42.1154C7.23861 42.2152 7.15086 42.3354 7.09089 42.4686C7.03092 42.6019 7 42.7453 7 42.8903C7 43.0353 7.03092 43.1787 7.09089 43.3119C7.15086 43.4451 7.23861 43.5653 7.34882 43.6652L7.36344 43.6791C7.58999 43.8851 7.89097 44 8.20397 44C8.51697 44 8.81795 43.8851 9.0445 43.6791L22.6221 31.3411C22.7415 31.2326 22.8366 31.1021 22.9016 30.9575C22.9665 30.813 23 30.6573 23 30.5C23 30.3427 22.9665 30.187 22.9016 30.0425C22.8366 29.8979 22.7415 29.7674 22.6221 29.6589Z" fill="#8DA2A8"/>
</svg>
