<svg width="40" height="40" viewBox="0 0 40 40" fill="none" xmlns="http://www.w3.org/2000/svg">
<g clip-path="url(#clip0_819_745)">
<path d="M0 20C0 8.95431 8.95431 0 20 0C31.0457 0 40 8.95431 40 20C40 31.0457 31.0457 40 20 40C8.95431 40 0 31.0457 0 20Z" fill="white"/>
<path d="M-49.872 25.144C-50.6507 25.144 -51.36 25.0107 -52 24.744C-52.64 24.4667 -53.184 24.0773 -53.632 23.576C-54.08 23.0747 -54.4267 22.4667 -54.672 21.752C-54.9067 21.0373 -55.024 20.2373 -55.024 19.352C-55.024 18.456 -54.9067 17.656 -54.672 16.952C-54.4267 16.2373 -54.08 15.6347 -53.632 15.144C-53.184 14.6427 -52.6453 14.2587 -52.016 13.992C-51.376 13.7147 -50.6613 13.576 -49.872 13.576C-49.072 13.576 -48.3573 13.7093 -47.728 13.976C-47.088 14.2427 -46.544 14.6267 -46.096 15.128C-45.6373 15.6293 -45.2907 16.2373 -45.056 16.952C-44.8107 17.656 -44.688 18.4507 -44.688 19.336C-44.688 20.232 -44.8107 21.0373 -45.056 21.752C-45.3013 22.4667 -45.648 23.0747 -46.096 23.576C-46.544 24.0773 -47.088 24.4667 -47.728 24.744C-48.3573 25.0107 -49.072 25.144 -49.872 25.144ZM-49.872 23.976C-49.0613 23.976 -48.3787 23.7947 -47.824 23.432C-47.2587 23.0693 -46.8267 22.5413 -46.528 21.848C-46.2293 21.1547 -46.08 20.3227 -46.08 19.352C-46.08 18.3707 -46.2293 17.5387 -46.528 16.856C-46.8267 16.1733 -47.2587 15.6507 -47.824 15.288C-48.3787 14.9253 -49.0613 14.744 -49.872 14.744C-50.6613 14.744 -51.3387 14.9253 -51.904 15.288C-52.4587 15.6507 -52.8853 16.1787 -53.184 16.872C-53.4827 17.5547 -53.632 18.3813 -53.632 19.352C-53.632 20.3227 -53.4827 21.1547 -53.184 21.848C-52.8853 22.5307 -52.4587 23.0587 -51.904 23.432C-51.3387 23.7947 -50.6613 23.976 -49.872 23.976ZM-40.8384 25V18.264H-43.6544V17.224H-36.7104V18.264H-39.5424V25H-40.8384ZM-35.345 25V17.224H-34.049V20.472H-32.593L-30.049 17.224H-28.625L-31.537 21L-31.905 20.584C-31.6063 20.616 -31.345 20.6907 -31.121 20.808C-30.897 20.9253 -30.6837 21.1067 -30.481 21.352C-30.2783 21.5867 -30.0597 21.9067 -29.825 22.312L-28.225 25H-29.617L-31.025 22.648C-31.2063 22.3493 -31.377 22.12 -31.537 21.96C-31.697 21.7893 -31.8783 21.672 -32.081 21.608C-32.2837 21.544 -32.5343 21.512 -32.833 21.512H-34.049V25H-35.345ZM-26.9071 27.88V17.224H-25.6431V19.064H-25.8031C-25.6325 18.456 -25.2965 17.976 -24.7951 17.624C-24.2831 17.2613 -23.6751 17.08 -22.9711 17.08C-22.2778 17.08 -21.6751 17.2453 -21.1631 17.576C-20.6405 17.896 -20.2405 18.36 -19.9631 18.968C-19.6751 19.5653 -19.5311 20.28 -19.5311 21.112C-19.5311 21.9333 -19.6751 22.648 -19.9631 23.256C-20.2405 23.8533 -20.6351 24.3173 -21.1471 24.648C-21.6591 24.9787 -22.2671 25.144 -22.9711 25.144C-23.6751 25.144 -24.2778 24.968 -24.7791 24.616C-25.2805 24.2533 -25.6218 23.7733 -25.8031 23.176H-25.6111V27.88H-26.9071ZM-23.2431 24.104C-22.5071 24.104 -21.9258 23.848 -21.4991 23.336C-21.0618 22.8133 -20.8431 22.072 -20.8431 21.112C-20.8431 20.1413 -21.0618 19.4 -21.4991 18.888C-21.9258 18.376 -22.5071 18.12 -23.2431 18.12C-23.9685 18.12 -24.5498 18.376 -24.9871 18.888C-25.4245 19.4 -25.6431 20.1413 -25.6431 21.112C-25.6431 22.072 -25.4245 22.8133 -24.9871 23.336C-24.5498 23.848 -23.9685 24.104 -23.2431 24.104ZM-17.4387 25V17.224H-16.1427V19.992H-13.7907C-12.7987 19.992 -12.0467 20.2107 -11.5347 20.648C-11.0227 21.0747 -10.7667 21.6827 -10.7667 22.472C-10.7667 22.9947 -10.8894 23.448 -11.1347 23.832C-11.3694 24.2053 -11.7107 24.4933 -12.1587 24.696C-12.5961 24.8987 -13.1401 25 -13.7907 25H-17.4387ZM-16.1427 24.072H-13.9187C-13.3107 24.072 -12.8414 23.944 -12.5107 23.688C-12.1801 23.432 -12.0147 23.032 -12.0147 22.488C-12.0147 21.944 -12.1801 21.5493 -12.5107 21.304C-12.8414 21.048 -13.3107 20.92 -13.9187 20.92H-16.1427V24.072ZM-9.61475 25V17.224H-8.31875V25H-9.61475ZM-4.13525 25V18.264H-6.95125V17.224H-0.00724983V18.264H-2.83925V25H-4.13525ZM1.35813 25V17.224H2.65413V19.992H5.00613C5.99813 19.992 6.75013 20.2107 7.26213 20.648C7.77413 21.0747 8.03013 21.6827 8.03013 22.472C8.03013 22.9947 7.90746 23.448 7.66213 23.832C7.42746 24.2053 7.08613 24.4933 6.63813 24.696C6.20079 24.8987 5.65679 25 5.00613 25H1.35813ZM2.65413 24.072H4.87813C5.48613 24.072 5.95546 23.944 6.28613 23.688C6.61679 23.4213 6.78213 23.0213 6.78213 22.488C6.78213 21.944 6.61679 21.5493 6.28613 21.304C5.95546 21.048 5.48613 20.92 4.87813 20.92H2.65413V24.072ZM14.0613 25V17.224H15.3573V20.472H16.8133L19.3573 17.224H20.7812L17.8693 21L17.5013 20.584C17.7999 20.616 18.0613 20.6907 18.2853 20.808C18.5093 20.9253 18.7226 21.1067 18.9253 21.352C19.1279 21.5867 19.3466 21.9067 19.5813 22.312L21.1813 25H19.7893L18.3813 22.648C18.1999 22.3493 18.0293 22.12 17.8693 21.96C17.7093 21.7893 17.5279 21.672 17.3253 21.608C17.1226 21.544 16.8719 21.512 16.5733 21.512H15.3573V25H14.0613ZM24.9471 25.144C24.4138 25.144 23.9338 25.0427 23.5071 24.84C23.0911 24.6267 22.7605 24.3387 22.5151 23.976C22.2698 23.6133 22.1471 23.208 22.1471 22.76C22.1471 22.184 22.2911 21.7307 22.5791 21.4C22.8778 21.0693 23.3631 20.8347 24.0351 20.696C24.7178 20.5573 25.6458 20.488 26.8191 20.488H27.5391V21.336H26.8351C26.1845 21.336 25.6405 21.3573 25.2031 21.4C24.7658 21.4427 24.4191 21.5173 24.1631 21.624C23.9071 21.7307 23.7258 21.8693 23.6191 22.04C23.5125 22.2107 23.4591 22.424 23.4591 22.68C23.4591 23.1173 23.6085 23.4747 23.9071 23.752C24.2165 24.0293 24.6325 24.168 25.1551 24.168C25.5818 24.168 25.9551 24.0667 26.2751 23.864C26.6058 23.6613 26.8618 23.384 27.0431 23.032C27.2351 22.68 27.3311 22.2747 27.3311 21.816V19.992C27.3311 19.3307 27.1978 18.856 26.9311 18.568C26.6645 18.2693 26.2271 18.12 25.6191 18.12C25.1498 18.12 24.6965 18.1893 24.2591 18.328C23.8218 18.456 23.3738 18.6693 22.9151 18.968L22.4671 18.024C22.7445 17.832 23.0591 17.6667 23.4111 17.528C23.7631 17.3787 24.1311 17.2667 24.5151 17.192C24.8991 17.1173 25.2671 17.08 25.6191 17.08C26.2911 17.08 26.8458 17.192 27.2831 17.416C27.7205 17.6293 28.0458 17.96 28.2591 18.408C28.4725 18.8453 28.5791 19.4107 28.5791 20.104V25H27.3631V23.192H27.5071C27.4218 23.5973 27.2565 23.944 27.0111 24.232C26.7765 24.52 26.4831 24.744 26.1311 24.904C25.7791 25.064 25.3845 25.144 24.9471 25.144ZM31.1241 27.88V17.224H32.3881V19.064H32.2281C32.3988 18.456 32.7348 17.976 33.2361 17.624C33.7481 17.2613 34.3561 17.08 35.0601 17.08C35.7535 17.08 36.3561 17.2453 36.8681 17.576C37.3908 17.896 37.7908 18.36 38.0681 18.968C38.3561 19.5653 38.5001 20.28 38.5001 21.112C38.5001 21.9333 38.3561 22.648 38.0681 23.256C37.7908 23.8533 37.3961 24.3173 36.8841 24.648C36.3721 24.9787 35.7641 25.144 35.0601 25.144C34.3561 25.144 33.7535 24.968 33.2521 24.616C32.7508 24.2533 32.4095 23.7733 32.2281 23.176H32.4201V27.88H31.1241ZM34.7881 24.104C35.5241 24.104 36.1055 23.848 36.5321 23.336C36.9695 22.8133 37.1881 22.072 37.1881 21.112C37.1881 20.1413 36.9695 19.4 36.5321 18.888C36.1055 18.376 35.5241 18.12 34.7881 18.12C34.0628 18.12 33.4815 18.376 33.0441 18.888C32.6068 19.4 32.3881 20.1413 32.3881 21.112C32.3881 22.072 32.6068 22.8133 33.0441 23.336C33.4815 23.848 34.0628 24.104 34.7881 24.104ZM42.2085 25V18.264H39.3925V17.224H46.3365V18.264H43.5045V25H42.2085ZM48.6451 27.88L50.1011 24.6V25.16L46.6931 17.224H48.1011L50.8851 24.04H50.4531L53.2691 17.224H54.6291L50.0051 27.88H48.6451Z" fill="black"/>
</g>
<g clip-path="url(#clip1_819_745)">
<path d="M40 0H0V40H40V0Z" fill="#B6F7B8"/>
<path fill-rule="evenodd" clip-rule="evenodd" d="M0 0H40V13.125L0 6.875V0Z" fill="#FFECC0"/>
<path fill-rule="evenodd" clip-rule="evenodd" d="M0 35.625L40 29.375V40H0V35.625Z" fill="#EDF9DE"/>
<path fill-rule="evenodd" clip-rule="evenodd" d="M0 6.08749L13.9625 8.26875C15.7 7.16875 17.7688 6.56249 20 6.56249C23.0938 6.56249 25.8687 7.71874 27.8875 9.75C28.1438 10.0062 28.3813 10.275 28.6063 10.55L40 12.3375V13.9187L29.7688 12.3187C30.5313 13.775 30.9375 15.4 30.9375 17.0625C30.9375 19.2062 30.4563 21.3437 29.4688 23.4875L29.4375 23.55L29.0188 24.45H28.025C25.9688 24.45 24.6063 25.0625 23.7188 26.1562C23.0188 27.0125 22.6125 28.1625 22.4813 29.425L22.475 29.4625L22.4563 29.6625L22.45 29.75L22.4313 29.9187C22.3813 30.4812 22.3438 30.9562 22.325 31.3437L40 28.5875V30.1687L0 36.4188V34.8375L17.7 32.0687L17.6938 31.7125V31.4812C17.675 31.05 17.6375 30.5 17.575 29.8312L17.5625 29.7062L17.5438 29.4875C17.4188 28.225 17.0188 27.0562 16.3188 26.1875C15.4375 25.0937 14.0875 24.4687 12.05 24.4562H10.9938L10.575 23.5562C9.5625 21.3875 9.075 19.2312 9.075 17.0687C9.075 14.3437 10.1812 11.7125 12.125 9.7625C12.1812 9.70625 12.2375 9.64999 12.2938 9.59375L0 7.66875V6.08749Z" fill="white"/>
<path fill-rule="evenodd" clip-rule="evenodd" d="M20 8.125C25.5813 8.125 29.375 12.425 29.375 17.0625C29.375 18.925 28.9688 20.8625 28.0188 22.8938C22.525 22.8938 21.1688 26.8313 20.9125 29.3063L20.8938 29.4688C20.8063 30.35 20.7563 31.0625 20.7437 31.5938L19.2563 31.825V31.775C19.25 31.2125 19.2 30.4313 19.1 29.4188L19.0938 29.375C18.8563 26.9063 17.5313 22.8875 11.9813 22.8875C11.0313 20.8625 10.625 18.925 10.625 17.0625C10.625 12.425 14.4125 8.125 20 8.125Z" fill="#4285F4"/>
</g>
<defs>
<clipPath id="clip0_819_745">
<path d="M0 20C0 8.95431 8.95431 0 20 0C31.0457 0 40 8.95431 40 20C40 31.0457 31.0457 40 20 40C8.95431 40 0 31.0457 0 20Z" fill="white"/>
</clipPath>
<clipPath id="clip1_819_745">
<rect width="40" height="40" rx="20" fill="white"/>
</clipPath>
</defs>
</svg>
