<svg width="40" height="40" viewBox="0 0 40 40" fill="none" xmlns="http://www.w3.org/2000/svg">
<g clip-path="url(#clip0_830_434)">
<path d="M0 20C0 8.95431 8.95431 0 20 0C31.0457 0 40 8.95431 40 20C40 31.0457 31.0457 40 20 40C8.95431 40 0 31.0457 0 20Z" fill="white"/>
<path d="M-54.608 25V13.72H-53.296V18.712H-46.528V13.72H-45.216V25H-46.528V19.848H-53.296V25H-54.608ZM-40.0841 25.144C-40.6175 25.144 -41.0975 25.0427 -41.5241 24.84C-41.9401 24.6267 -42.2708 24.3387 -42.5161 23.976C-42.7615 23.6133 -42.8841 23.208 -42.8841 22.76C-42.8841 22.184 -42.7401 21.7307 -42.4521 21.4C-42.1535 21.0693 -41.6681 20.8347 -40.9961 20.696C-40.3135 20.5573 -39.3855 20.488 -38.2121 20.488H-37.4921V21.336H-38.1961C-38.8468 21.336 -39.3908 21.3573 -39.8281 21.4C-40.2655 21.4427 -40.6121 21.5173 -40.8681 21.624C-41.1241 21.7307 -41.3055 21.8693 -41.4121 22.04C-41.5188 22.2107 -41.5721 22.424 -41.5721 22.68C-41.5721 23.1173 -41.4228 23.4747 -41.1241 23.752C-40.8148 24.0293 -40.3988 24.168 -39.8761 24.168C-39.4495 24.168 -39.0761 24.0667 -38.7561 23.864C-38.4255 23.6613 -38.1695 23.384 -37.9881 23.032C-37.7961 22.68 -37.7001 22.2747 -37.7001 21.816V19.992C-37.7001 19.3307 -37.8335 18.856 -38.1001 18.568C-38.3668 18.2693 -38.8041 18.12 -39.4121 18.12C-39.8815 18.12 -40.3348 18.1893 -40.7721 18.328C-41.2095 18.456 -41.6575 18.6693 -42.1161 18.968L-42.5641 18.024C-42.2868 17.832 -41.9721 17.6667 -41.6201 17.528C-41.2681 17.3787 -40.9001 17.2667 -40.5161 17.192C-40.1321 17.1173 -39.7641 17.08 -39.4121 17.08C-38.7401 17.08 -38.1855 17.192 -37.7481 17.416C-37.3108 17.6293 -36.9855 17.96 -36.7721 18.408C-36.5588 18.8453 -36.4521 19.4107 -36.4521 20.104V25H-37.6681V23.192H-37.5241C-37.6095 23.5973 -37.7748 23.944 -38.0201 24.232C-38.2548 24.52 -38.5481 24.744 -38.9001 24.904C-39.2521 25.064 -39.6468 25.144 -40.0841 25.144ZM-33.9231 25V17.224H-27.1391V25H-28.4351V18.264H-32.6271V25H-33.9231ZM-24.5794 25V17.224H-23.3954V23.768H-23.7954L-18.8994 17.224H-17.7954V25H-18.9794V18.44H-18.5794L-23.4754 25H-24.5794ZM-11.9236 25.144C-12.7023 25.144 -13.3743 24.9733 -13.9396 24.632C-14.505 24.2907 -14.9423 23.816 -15.2516 23.208C-15.5503 22.5893 -15.6996 21.8747 -15.6996 21.064C-15.6996 20.2427 -15.5503 19.5333 -15.2516 18.936C-14.9423 18.3387 -14.505 17.88 -13.9396 17.56C-13.3743 17.24 -12.7023 17.08 -11.9236 17.08C-11.4436 17.08 -10.969 17.1653 -10.4996 17.336C-10.0303 17.5067 -9.64096 17.7467 -9.33162 18.056L-9.77962 19C-10.089 18.7013 -10.4303 18.4827 -10.8036 18.344C-11.1663 18.2053 -11.513 18.136 -11.8436 18.136C-12.6543 18.136 -13.2783 18.392 -13.7156 18.904C-14.153 19.4053 -14.3716 20.1307 -14.3716 21.08C-14.3716 22.008 -14.153 22.744 -13.7156 23.288C-13.2783 23.8213 -12.6543 24.088 -11.8436 24.088C-11.513 24.088 -11.1663 24.0187 -10.8036 23.88C-10.4303 23.7413 -10.089 23.5173 -9.77962 23.208L-9.33162 24.152C-9.64096 24.4613 -10.0356 24.7067 -10.5156 24.888C-10.985 25.0587 -11.4543 25.144 -11.9236 25.144ZM-5.20912 25.144C-5.74246 25.144 -6.22246 25.0427 -6.64912 24.84C-7.06512 24.6267 -7.39579 24.3387 -7.64112 23.976C-7.88646 23.6133 -8.00912 23.208 -8.00912 22.76C-8.00912 22.184 -7.86512 21.7307 -7.57712 21.4C-7.27846 21.0693 -6.79312 20.8347 -6.12112 20.696C-5.43846 20.5573 -4.51046 20.488 -3.33712 20.488H-2.61712V21.336H-3.32112C-3.97179 21.336 -4.51579 21.3573 -4.95312 21.4C-5.39046 21.4427 -5.73712 21.5173 -5.99312 21.624C-6.24912 21.7307 -6.43046 21.8693 -6.53712 22.04C-6.64379 22.2107 -6.69712 22.424 -6.69712 22.68C-6.69712 23.1173 -6.54779 23.4747 -6.24912 23.752C-5.93979 24.0293 -5.52379 24.168 -5.00112 24.168C-4.57446 24.168 -4.20112 24.0667 -3.88112 23.864C-3.55046 23.6613 -3.29446 23.384 -3.11312 23.032C-2.92112 22.68 -2.82512 22.2747 -2.82512 21.816V19.992C-2.82512 19.3307 -2.95846 18.856 -3.22512 18.568C-3.49179 18.2693 -3.92912 18.12 -4.53712 18.12C-5.00646 18.12 -5.45979 18.1893 -5.89712 18.328C-6.33446 18.456 -6.78246 18.6693 -7.24112 18.968L-7.68912 18.024C-7.41179 17.832 -7.09712 17.6667 -6.74512 17.528C-6.39312 17.3787 -6.02512 17.2667 -5.64112 17.192C-5.25712 17.1173 -4.88912 17.08 -4.53712 17.08C-3.86512 17.08 -3.31046 17.192 -2.87312 17.416C-2.43579 17.6293 -2.11046 17.96 -1.89712 18.408C-1.68379 18.8453 -1.57712 19.4107 -1.57712 20.104V25H-2.79312V23.192H-2.64912C-2.73446 23.5973 -2.89979 23.944 -3.14512 24.232C-3.37979 24.52 -3.67312 24.744 -4.02512 24.904C-4.37712 25.064 -4.77179 25.144 -5.20912 25.144ZM2.56788 25V18.264H-0.248125V17.224H6.69588V18.264H3.86388V25H2.56788ZM8.06125 25V17.224H9.35725V19.992H11.7093C12.7013 19.992 13.4533 20.2107 13.9653 20.648C14.4773 21.0747 14.7333 21.6827 14.7333 22.472C14.7333 22.9947 14.6106 23.448 14.3653 23.832C14.1306 24.2053 13.7893 24.4933 13.3413 24.696C12.9039 24.8987 12.3599 25 11.7093 25H8.06125ZM9.35725 24.072H11.5813C12.1893 24.072 12.6586 23.944 12.9893 23.688C13.3199 23.4213 13.4853 23.0213 13.4853 22.488C13.4853 21.944 13.3199 21.5493 12.9893 21.304C12.6586 21.048 12.1893 20.92 11.5813 20.92H9.35725V24.072Z" fill="black"/>
</g>
<rect width="40" height="40" rx="20" fill="#33CF6A"/>
<path d="M27.794 12.2011C26.7803 11.1826 25.573 10.375 24.2425 9.82546C22.912 9.27589 21.4848 8.99531 20.0442 9.00006C14.008 9.00006 9.08844 13.895 9.08844 19.901C9.08844 21.826 9.59698 23.696 10.5477 25.346L9 31L14.804 29.482C16.407 30.351 18.209 30.813 20.0442 30.813C26.0804 30.813 31 25.918 31 19.912C31 16.997 29.8613 14.258 27.794 12.2011ZM20.0442 28.965C18.408 28.965 16.805 28.525 15.401 27.7L15.0693 27.502L11.6201 28.404L12.5377 25.06L12.3166 24.719C11.4073 23.2748 10.9246 21.6052 10.9236 19.901C10.9236 14.907 15.0141 10.8371 20.0332 10.8371C22.4653 10.8371 24.7538 11.7831 26.4673 13.499C27.316 14.3393 27.9885 15.3388 28.4458 16.4397C28.9032 17.5406 29.1363 18.7208 29.1317 19.912C29.1538 24.906 25.0633 28.965 20.0442 28.965ZM25.0412 22.189C24.7648 22.057 23.4161 21.397 23.1729 21.298C22.9186 21.21 22.7417 21.166 22.5538 21.43C22.3658 21.705 21.8462 22.321 21.6915 22.497C21.5367 22.684 21.3709 22.706 21.0945 22.563C20.8181 22.431 19.9337 22.134 18.8945 21.21C18.0764 20.484 17.5347 19.593 17.3688 19.318C17.2141 19.043 17.3467 18.9 17.4905 18.757C17.6121 18.636 17.7668 18.438 17.8995 18.284C18.0322 18.13 18.0874 18.009 18.1759 17.833C18.2643 17.646 18.2201 17.492 18.1538 17.36C18.0874 17.228 17.5347 15.886 17.3136 15.336C17.0925 14.808 16.8603 14.874 16.6945 14.863H16.1638C15.9759 14.863 15.6884 14.929 15.4342 15.204C15.191 15.479 14.4834 16.139 14.4834 17.481C14.4834 18.823 15.4673 20.121 15.6 20.297C15.7327 20.484 17.5347 23.234 20.2764 24.411C20.9286 24.697 21.4372 24.862 21.8352 24.983C22.4874 25.192 23.0844 25.159 23.5598 25.093C24.0905 25.016 25.1849 24.433 25.406 23.795C25.6382 23.157 25.6382 22.618 25.5608 22.497C25.4834 22.376 25.3176 22.321 25.0412 22.189Z" fill="white"/>
<defs>
<clipPath id="clip0_830_434">
<path d="M0 20C0 8.95431 8.95431 0 20 0C31.0457 0 40 8.95431 40 20C40 31.0457 31.0457 40 20 40C8.95431 40 0 31.0457 0 20Z" fill="white"/>
</clipPath>
</defs>
</svg>
