<svg width="26" height="32" viewBox="0 0 26 32" fill="none" xmlns="http://www.w3.org/2000/svg">
<path fill-rule="evenodd" clip-rule="evenodd" d="M7.40094 1.16527C8.34 1.42152 9.26366 1.80094 9.87065 2.39646C9.88351 2.40908 9.89586 2.42222 9.90765 2.43583C10.8278 3.49753 11.3093 4.86447 11.2558 6.26297C11.2183 7.24403 10.9194 8.18984 10.3997 9.0087C10.8825 9.54593 11.3206 10.1116 11.7105 10.7087C12.4888 11.9007 13.0675 13.2071 13.428 14.6447C13.5291 14.4143 13.6383 14.187 13.7553 13.9633C14.3715 12.7848 14.9686 11.9346 15.9308 11.0792C15.8489 10.8877 15.7804 10.6904 15.7259 10.4886C15.5676 9.90189 15.5311 9.28936 15.6189 8.68816C15.7067 8.08701 15.9168 7.50983 16.2365 6.99164C16.5534 6.47825 16.9713 6.03322 17.4654 5.6833C18.0184 5.25672 18.7931 5.04256 19.5441 4.92776C20.3228 4.80876 21.1774 4.78257 21.9579 4.79726C22.7417 4.81201 23.4694 4.86843 24 4.92089C24.2658 4.94717 24.4834 4.97259 24.6353 4.99154C24.7113 5.00103 24.771 5.0089 24.8121 5.01448L24.8597 5.02104L24.8726 5.02286L24.8762 5.02338L24.8773 5.02354C24.8775 5.02356 24.8779 5.02363 24.7805 5.68267C25.4498 5.7432 25.4498 5.74331 25.4498 5.74344L25.4493 5.74853L25.4481 5.76135L25.4434 5.80864C25.4392 5.8495 25.433 5.90869 25.4245 5.98397C25.4075 6.13447 25.3814 6.34958 25.3449 6.61125C25.2719 7.13357 25.1565 7.84641 24.9865 8.60378C24.8173 9.35795 24.59 10.1743 24.2887 10.8963C23.9979 11.5933 23.6034 12.2887 23.0524 12.7223C22.5929 13.1157 22.0582 13.4134 21.4801 13.5976C20.8966 13.7835 20.281 13.85 19.6709 13.793C19.0606 13.736 18.4685 13.5566 17.9304 13.2659C17.4428 13.0024 17.0088 12.6525 16.6497 12.234C15.9335 12.9075 15.4629 13.5929 14.9488 14.5761C14.44 15.5493 14.0998 16.5983 13.9408 17.6795L19.2018 17.6794C19.2081 17.6794 19.2144 17.6795 19.2207 17.6797C21.0361 17.7304 22.7599 18.4805 24.0258 19.7709C25.2918 21.0613 26 22.7901 26 24.5898C26 26.3895 25.2918 28.1182 24.0258 29.4085C22.7599 30.6989 21.0361 31.4492 19.2207 31.4997C19.2144 31.4999 19.2081 31.5 19.2018 31.5H7.25013L7.23544 31.4998C5.41917 31.4605 3.69002 30.7206 2.41579 29.4371C1.14162 28.1538 0.422937 26.4285 0.412613 24.6281C0.402289 22.8278 1.10115 21.0944 2.36055 19.7968C3.61992 18.4992 5.34048 17.7396 7.15623 17.6799C7.16366 17.6797 7.17109 17.6796 7.17851 17.6796L12.5061 17.6795C12.4029 15.2334 11.7276 13.1871 10.5819 11.4324C10.27 10.9548 9.92189 10.4966 9.53867 10.0563C8.54923 10.9982 7.24408 11.5484 5.87048 11.6C4.45927 11.653 3.07995 11.1758 2.00863 10.2639C1.99576 10.2529 1.9833 10.2415 1.9713 10.2296C1.36617 9.62991 0.976302 8.72002 0.710869 7.7938C0.439924 6.84834 0.273472 5.79295 0.17028 4.819C0.0667492 3.84186 0.0250672 2.92852 0.00913643 2.26061C0.00115874 1.92613 -0.000388963 1.65196 7.4325e-05 1.46059C0.000306029 1.36487 0.00104096 1.28979 0.00172914 1.23815L0.00265804 1.17859L0.00296778 1.16264L0.00309021 1.15694C0.00309353 1.15679 0.00310585 1.15625 0.67505 1.17147C0.656017 0.505657 0.656138 0.505654 0.656285 0.50565L0.662485 0.505485L0.678685 0.505087L0.73922 0.503826C0.791723 0.502848 0.868073 0.501687 0.965412 0.500902C1.16003 0.499334 1.43888 0.499268 1.77901 0.505195C2.45824 0.517031 3.38689 0.552845 4.3799 0.6493C5.36965 0.745438 6.44163 0.903501 7.40094 1.16527ZM0.67505 1.17147L0.656285 0.50565C0.298588 0.515692 0.0112825 0.80172 0.00310583 1.15625L0.67505 1.17147ZM1.34602 1.83254C1.34735 1.95141 1.34955 2.08428 1.353 2.22913C1.36836 2.87314 1.40852 3.74878 1.50717 4.67989C1.60616 5.61419 1.76224 6.58633 2.00397 7.42985C2.24729 8.27891 2.55424 8.91277 2.90481 9.27051C3.71612 9.95235 4.75593 10.3087 5.81956 10.2688C6.86606 10.2294 7.86026 9.80935 8.6129 9.09033C7.62725 8.15236 6.46637 7.29955 5.14403 6.51327C4.82573 6.324 4.72252 5.91485 4.9135 5.59941C5.10448 5.28397 5.51734 5.18168 5.83564 5.37095C7.17486 6.16726 8.38024 7.04241 9.42559 8.01788C9.71957 7.46436 9.88821 6.84818 9.91251 6.21254C9.95279 5.15903 9.59368 4.12913 8.90644 3.32533C8.54694 2.98371 7.90609 2.68486 7.04409 2.44964C6.18737 2.21586 5.19901 2.06741 4.24877 1.97511C3.30179 1.88313 2.4108 1.84858 1.75538 1.83716C1.60565 1.83455 1.46847 1.83315 1.34602 1.83254ZM12.5353 19.0117L7.19 19.0117C5.72821 19.0626 4.34357 19.6753 3.32938 20.7203C2.31268 21.7678 1.7485 23.1671 1.75683 24.6205C1.76517 26.074 2.34535 27.4668 3.37399 28.5028C4.40092 29.5372 5.79396 30.1343 7.25765 30.1678H12.5353V19.0117ZM13.8795 30.1678H19.1921C20.6543 30.1247 22.0422 29.5194 23.062 28.4799C24.084 27.4382 24.6558 26.0427 24.6558 24.5898C24.6558 23.1369 24.084 21.7412 23.062 20.6995C22.0422 19.66 20.6543 19.0548 19.192 19.0116L13.8795 19.0117V30.1678ZM17.5969 11.278C17.8634 11.6136 18.1957 11.8919 18.5738 12.0962C18.9521 12.3006 19.3682 12.4266 19.797 12.4667C20.2259 12.5068 20.6586 12.46 21.0685 12.3294C21.4787 12.1987 21.8578 11.9867 22.1826 11.7065C22.1916 11.6988 22.2007 11.6913 22.21 11.6841C22.4889 11.468 22.7785 11.0294 23.0465 10.3872C23.3066 9.76389 23.5138 9.02975 23.6743 8.31458C23.8341 7.60259 23.9437 6.92718 24.0133 6.42858C24.0214 6.37116 24.0288 6.31615 24.0358 6.26377C23.9821 6.2581 23.9256 6.25231 23.8665 6.24648C23.3597 6.19637 22.6698 6.14306 21.9324 6.12919C21.1917 6.11525 20.4218 6.14154 19.749 6.24436C19.0553 6.3504 18.5588 6.52469 18.2848 6.73947C18.2756 6.74666 18.2662 6.75362 18.2566 6.76033C17.9053 7.00725 17.6082 7.32239 17.3833 7.68668C17.1586 8.05087 17.011 8.45649 16.9493 8.87895C16.8876 9.30142 16.9132 9.73194 17.0245 10.1444C17.1358 10.5568 17.3306 10.9424 17.5969 11.278ZM24.7805 5.68267L25.4498 5.74344C25.4822 5.39114 25.2305 5.07483 24.8773 5.02354L24.7805 5.68267Z" fill="black"/>
</svg>
