<svg width="30" height="32" viewBox="0 0 30 32" fill="none" xmlns="http://www.w3.org/2000/svg">
<path fill-rule="evenodd" clip-rule="evenodd" d="M11.2949 7.05393C11.5557 6.79892 11.9093 6.65566 12.2781 6.65566H17.7219C18.0907 6.65566 18.4444 6.79892 18.7052 7.05393C18.9659 7.30893 19.1124 7.6548 19.1124 8.01544V10.6482H21.8047C22.1735 10.6482 22.5272 10.7915 22.788 11.0465C23.0488 11.3015 23.1953 11.6473 23.1953 12.008V17.3314C23.1953 17.692 23.0488 18.0379 22.788 18.2929C22.5272 18.5479 22.1735 18.6912 21.8047 18.6912H19.1124V21.3239C19.1124 21.6846 18.9659 22.0304 18.7052 22.2854C18.4444 22.5404 18.0907 22.6837 17.7219 22.6837H12.2781C11.9093 22.6837 11.5557 22.5404 11.2949 22.2854C11.0341 22.0304 10.8876 21.6846 10.8876 21.3239V18.6912H8.1953C7.82651 18.6912 7.47282 18.5479 7.21205 18.2929C6.95127 18.0379 6.80477 17.692 6.80477 17.3314V12.008C6.80477 11.6473 6.95127 11.3015 7.21205 11.0465C7.47282 10.7915 7.82651 10.6482 8.1953 10.6482H10.8876V8.01544C10.8876 7.6548 11.0341 7.30893 11.2949 7.05393ZM12.3077 8.04437V11.3426C12.3077 11.726 11.9898 12.0369 11.5977 12.0369H8.22489V17.3024H11.5977C11.9898 17.3024 12.3077 17.6133 12.3077 17.9968V21.295H17.6923V17.9968C17.6923 17.6133 18.0102 17.3024 18.4024 17.3024H21.7752V12.0369H18.4024C18.0102 12.0369 17.6923 11.726 17.6923 11.3426V8.04437H12.3077Z" fill="black"/>
<path fill-rule="evenodd" clip-rule="evenodd" d="M15 0.00137995C19.5609 -0.0394214 24.0828 0.824975 28.2922 2.5423L28.2963 2.54395C28.8001 2.75309 29.2301 3.1022 29.5329 3.54802C29.8358 3.99383 29.9982 4.51676 30 5.05197L30 5.0543L30 15.2261C29.9583 18.7268 28.8174 22.1304 26.7319 24.976C24.6474 27.8201 21.7199 29.9695 18.3454 31.1333L16.8235 31.6829C15.6463 32.1057 14.3538 32.1057 13.1766 31.6829L11.6547 31.1333C8.28018 29.9695 5.35263 27.8201 3.26815 24.976C1.18263 22.1304 0.0417787 18.7268 9.62843e-05 15.2261L0 15.218L4.81633e-05 5.05197C0.00188103 4.51676 0.164292 3.99383 0.467143 3.54802C0.769994 3.1022 1.19997 2.75309 1.70379 2.54396L1.70783 2.54229C5.91726 0.824963 10.4392 -0.0394214 15 0.00137995ZM2.25686 3.82304C2.00968 3.92604 1.79873 4.09756 1.65004 4.31643C1.50119 4.53556 1.42127 4.79253 1.42016 5.05558V15.2139C1.45928 18.4285 2.50729 21.5539 4.42243 24.167C6.33837 26.7812 9.0296 28.7565 12.1317 29.8253L12.1417 29.8288L13.6661 30.3793C14.5271 30.6885 15.4727 30.6886 16.3337 30.3794L17.8583 29.8288L17.8684 29.8253C20.9704 28.7565 23.6617 26.7812 25.5776 24.167C27.4928 21.5539 28.5408 18.4286 28.5799 15.214L28.5799 5.05662L28.5799 5.05589C28.5788 4.79273 28.4989 4.53564 28.35 4.31643C28.2013 4.09756 27.9904 3.92605 27.7432 3.82304C23.7097 2.17784 19.3768 1.35016 15.0067 1.39009H14.9934C10.6233 1.35016 6.29033 2.17784 2.25686 3.82304Z" fill="black"/>
</svg>
