<svg width="20" height="20" viewBox="0 0 20 20" fill="none" xmlns="http://www.w3.org/2000/svg">
<path d="M10.7163 10.8615H9.30769V8.92308H10.7163C11.0486 8.92308 11.2517 9.04492 11.3828 9.19908C11.5258 9.36708 11.6154 9.61631 11.6154 9.89231C11.6154 10.1683 11.5258 10.4175 11.3828 10.5855C11.2517 10.7397 11.0477 10.8615 10.7163 10.8615Z" fill="#4285F4"/>
<path d="M1 11C1 6.02923 5.02923 2 10 2C14.9708 2 19 6.02923 19 11C19 15.9708 14.9708 20 10 20C5.02923 20 1 15.9708 1 11ZM8.61538 7.53846C8.43177 7.53846 8.25568 7.6114 8.12585 7.74123C7.99602 7.87107 7.92308 8.04716 7.92308 8.23077V13.7692C7.92308 13.9528 7.99602 14.1289 8.12585 14.2588C8.25568 14.3886 8.43177 14.4615 8.61538 14.4615C8.799 14.4615 8.97509 14.3886 9.10492 14.2588C9.23475 14.1289 9.30769 13.9528 9.30769 13.7692V12.2462H10.7163C11.4455 12.2462 12.0372 11.9526 12.4369 11.4837C12.8246 11.0286 13 10.4471 13 9.89231C13 9.33754 12.8246 8.756 12.4369 8.30092C12.0372 7.832 11.4446 7.53846 10.7163 7.53846H8.61538Z" fill="#4285F4"/>
</svg>
