<svg width="35" height="35" viewBox="0 0 35 35" fill="none" xmlns="http://www.w3.org/2000/svg">
<rect width="35" height="35" rx="8" fill="#F6F6F6"/>
<path fill-rule="evenodd" clip-rule="evenodd" d="M11.1868 9.0078C12.6976 7.27723 14.9649 6.17651 17.5002 6.17651C18.3679 6.17651 19.2042 6.30549 19.9895 6.54452C22.08 7.18029 23.8089 8.59652 24.8072 10.4364C25.3999 11.5289 25.7352 12.7707 25.7352 14.0879C25.7352 14.1634 25.7338 14.2386 25.7317 14.3136C25.6485 17.6349 23.7412 19.9184 21.8525 22.1797C20.3581 23.9689 18.8753 25.7442 18.3171 28.0086C18.3019 28.0702 18.2855 28.1422 18.2681 28.2231C18.0962 29.023 16.9039 29.023 16.732 28.2231C16.7146 28.1422 16.6983 28.0702 16.6831 28.0086C16.209 26.0859 15.0684 24.5158 13.8201 22.9903C13.6 22.7216 13.377 22.4538 13.1533 22.1861C12.0098 20.8176 10.8595 19.4411 10.1103 17.8313C9.62033 16.7793 9.30125 15.6282 9.26838 14.3139C9.26589 14.2389 9.26464 14.1638 9.26465 14.0887C9.26465 12.1549 9.98687 10.3822 11.1868 9.0078ZM19.8736 16.0736L19.9467 15.9901C20.9494 14.8028 20.8761 13.0556 19.7255 11.9508C18.4964 10.77 16.5041 10.77 15.275 11.9508C15.2239 12 15.1745 12.0508 15.127 12.1032L15.128 12.1015L15.0508 12.1898C14.0513 13.3766 14.1261 15.1219 15.2749 16.2256C16.5041 17.4064 18.4964 17.4064 19.7254 16.2256C19.7766 16.1766 19.826 16.1259 19.8736 16.0736Z" fill="#DA2F2A"/>
</svg>
