<svg width="40" height="40" viewBox="0 0 40 40" fill="none" xmlns="http://www.w3.org/2000/svg">
<path d="M23.0858 16.1049V10.9074H32.5494V30.2682C32.5494 32.8816 30.431 35 27.8176 35C26.6296 35 25.544 34.5623 24.7129 33.8392C24.7129 33.8392 24.1581 33.3305 23.8975 32.8746M25.6285 5V10.9068M30.0071 5V10.9068M10.6775 21.6745H17.2027M13.9397 18.4117V24.9369M10.6775 28.8788H17.2027M23.0858 26.4582C23.0858 28.7236 22.1222 30.8961 20.407 32.4978C18.6919 34.0996 16.3655 34.9995 13.9399 34.9995C11.5142 34.9995 9.18792 34.0996 7.47272 32.4978C5.75753 30.8961 4.79395 28.7236 4.79395 26.4582C4.79395 19.2002 12.6275 10.659 13.9399 10.659C15.2523 10.659 23.0858 19.2002 23.0858 26.4582ZM34.2068 5.01174H21.4288V10.9065H34.2068V5.01174ZM32.5494 16.6395H28.04V25.1055H32.5494V16.6395Z" stroke="black" stroke-linecap="round" stroke-linejoin="round"/>
</svg>
