<svg width="40" height="40" viewBox="0 0 40 40" fill="none" xmlns="http://www.w3.org/2000/svg">
<path d="M31.9384 20.9999H30.6361C30.1781 20.9988 29.7346 20.8389 29.3803 20.5471C29.026 20.2554 28.7827 19.8498 28.6914 19.3987L28.0124 15.9669C20.0801 15.9669 20 11.9987 20 11.9987C20 11.9987 19.9172 15.9656 11.9876 15.9656L11.3086 19.3987C11.217 19.8499 10.9735 20.2556 10.6189 20.5473C10.2644 20.839 9.82068 20.9988 9.36254 20.9999H8.05883M18.0105 21.0395C17.7993 20.708 17.503 20.44 17.1528 20.2639C16.8026 20.0877 16.4115 20.01 16.021 20.0389C15.6304 20.01 15.2394 20.0877 14.8892 20.2639C14.5389 20.44 14.2426 20.708 14.0315 21.0395M25.9753 21.0395C25.7642 20.708 25.4678 20.44 25.1176 20.2639C24.7674 20.0877 24.3764 20.01 23.9858 20.0389C23.5951 20.0097 23.2037 20.0873 22.8532 20.2635C22.5028 20.4396 22.2062 20.7078 21.9949 21.0395M20 35C17.0123 35 11.0669 33.4698 10.1977 28.1924C10.1332 27.826 9.96706 27.4853 9.71834 27.2096C9.58351 27.2316 9.44745 27.2453 9.31094 27.2505C8.54474 27.2483 7.80287 26.9799 7.21112 26.4906C6.61938 26.0014 6.21418 25.3215 6.06422 24.5662C5.91426 23.8109 6.02878 23.0267 6.38836 22.3467C6.74793 21.6666 7.33044 21.1324 8.0371 20.8347C7.07018 14.8639 7.22228 5 20 5C32.7777 5 32.9298 14.8626 31.9629 20.8347V20.8402C32.6696 21.1379 33.2521 21.672 33.6116 22.3521C33.9712 23.0322 34.0857 23.8164 33.9358 24.5716C33.7858 25.3269 33.3806 26.0068 32.7889 26.4961C32.1971 26.9853 31.4553 27.2538 30.6891 27.256C30.5562 27.2511 30.4238 27.2378 30.2925 27.2164C30.0451 27.493 29.8791 27.8333 29.8131 28.1993C28.9345 33.4698 22.9877 35 20 35ZM20 35C17.2839 35 12.1044 33.7182 10.5508 29.4974V24.1341M20 35C22.7826 35 28.136 33.6663 29.5633 29.219V24.1341M29.5633 24.1341C23.3552 25.9551 16.7588 25.9551 10.5508 24.1341M29.5633 24.1341L31.6003 21.404M10.5508 24.1341L8.51377 21.404" stroke="black" stroke-linecap="round" stroke-linejoin="round"/>
</svg>
