<svg width="40" height="40" viewBox="0 0 40 40" fill="none" xmlns="http://www.w3.org/2000/svg">
<path d="M20.0001 32.8837V38M9.19043 19.5081C17.3385 16.4112 23.5308 22.9254 30.8098 21.2167M24.6329 2H15.3674C13.7292 2 12.158 2.65079 10.9996 3.80919C9.8412 4.9676 9.19043 6.53874 9.19043 8.17697V23.6194C9.19043 25.2576 9.8412 26.8288 10.9996 27.9871C12.158 29.1455 13.7292 29.7964 15.3674 29.7964V32.8849H24.6329V29.7964C26.271 29.7964 27.8422 29.1455 29.0006 27.9871C30.159 26.8288 30.8098 25.2576 30.8098 23.6194V8.17697C30.8098 6.53874 30.159 4.9676 29.0006 3.80919C27.8422 2.65079 26.271 2 24.6329 2ZM23.4819 12.321C23.4819 13.1825 23.115 14.0088 22.4621 14.618C21.8092 15.2272 20.9236 15.5695 20.0003 15.5695C19.0768 15.5695 18.1913 15.2272 17.5383 14.618C16.8854 14.0088 16.5187 13.1825 16.5187 12.321C16.5187 9.56044 19.5006 6.31193 20.0003 6.31193C20.4999 6.31193 23.4819 9.56044 23.4819 12.321Z" stroke="black" stroke-linecap="round" stroke-linejoin="round"/>
</svg>
