<svg width="40" height="40" viewBox="0 0 40 40" fill="none" xmlns="http://www.w3.org/2000/svg">
<path d="M20.0007 5V16.0883M20.0007 16.0883L8.91458 24.5676M20.0007 16.0883L31.0867 24.5676M12.6095 21.7408L10.2188 19.3496M11.5113 22.5809L12.8273 25.8722M12.8273 25.8722L11.5231 27.8289M12.8273 25.8722L14.1316 26.5244M27.3918 21.7408L29.7825 19.3496M28.49 22.5809L27.174 25.8722M27.174 25.8722L28.4782 27.8289M27.174 25.8722L25.8698 26.5244M11.9678 12.4892C6.95821 15.3552 5.25356 22.1491 5.00185 32.3686C4.98814 32.7277 5.05091 33.0855 5.18599 33.4185C5.32108 33.7514 5.52539 34.0518 5.78537 34.2997C6.04536 34.5477 6.35508 34.7375 6.694 34.8566C7.03292 34.9758 7.39328 35.0215 7.75119 34.9907L15.3993 34.208C15.7395 34.1681 16.0682 34.0598 16.3656 33.8898C16.663 33.7197 16.9231 33.4914 17.1301 33.2184C17.3372 32.9454 17.487 32.6334 17.5705 32.3011C17.6541 31.9688 17.6697 31.6231 17.6165 31.2846L16.9239 26.557C16.3414 22.58 15.9101 18.5852 15.6301 14.5725C15.6101 14.1525 15.4843 13.7444 15.2644 13.3861C15.0444 13.0277 14.7375 12.7309 14.3721 12.523C14.0066 12.3151 13.5946 12.203 13.1743 12.1971C12.7539 12.1912 12.3389 12.2917 11.9678 12.4892ZM28.0335 12.4892C33.0496 15.3591 34.7477 22.1491 34.9982 32.3686C35.0119 32.7277 34.9491 33.0855 34.814 33.4185C34.6789 33.7514 34.4746 34.0518 34.2146 34.2997C33.9546 34.5477 33.6449 34.7375 33.306 34.8566C32.9671 34.9758 32.6067 35.0215 32.2488 34.9907L24.6007 34.208C24.2605 34.1681 23.9318 34.0598 23.6344 33.8898C23.337 33.7197 23.0769 33.4914 22.8699 33.2184C22.6628 32.9454 22.513 32.6334 22.4295 32.3011C22.3459 31.9688 22.3303 31.6231 22.3835 31.2846L23.0761 26.557C23.6586 22.58 24.0899 18.5852 24.3699 14.5725C24.3898 14.1523 24.5156 13.744 24.7356 13.3855C24.9556 13.027 25.2627 12.73 25.6283 12.5221C25.9939 12.3142 26.4061 12.2022 26.8267 12.1964C27.2472 12.1907 27.6623 12.2914 28.0335 12.4892Z" stroke="black" stroke-linecap="round" stroke-linejoin="round"/>
</svg>
