<svg width="40" height="40" viewBox="0 0 40 40" fill="none" xmlns="http://www.w3.org/2000/svg">
<path d="M21.6097 12.487L10.0925 24.0056C9.69387 24.3906 9.37589 24.8512 9.15714 25.3604C8.93839 25.8696 8.82325 26.4173 8.81843 26.9715C8.81362 27.5258 8.91922 28.0754 9.12909 28.5883C9.33896 29.1013 9.64889 29.5673 10.0408 29.9592C10.4327 30.3511 10.8987 30.661 11.4117 30.8709C11.9246 31.0808 12.4742 31.1864 13.0285 31.1816C13.5827 31.1768 14.1304 31.0616 14.6396 30.8429C15.1488 30.6241 15.6094 30.3061 15.9944 29.9075L27.513 18.3903M21.6097 12.487L27.513 18.3903M21.6097 12.487C22.0961 12.0005 22.4273 11.3807 22.5614 10.706C22.6955 10.0313 22.6266 9.33201 22.3633 8.69649C22.1 8.06098 21.6542 7.5178 21.0822 7.13565C20.5103 6.75349 19.8378 6.54952 19.1499 6.54952C18.462 6.54952 17.7896 6.75349 17.2176 7.13565C16.6456 7.5178 16.1998 8.06098 15.9365 8.69649C15.6732 9.33201 15.6043 10.0313 15.7384 10.706C15.8726 11.3807 16.2037 12.0005 16.6901 12.487M27.513 18.3903C27.9995 17.9039 28.6193 17.5727 29.294 17.4386C29.9687 17.3045 30.668 17.3734 31.3035 17.6367C31.939 17.9 32.4822 18.3458 32.8644 18.9178C33.2465 19.4897 33.4505 20.1622 33.4505 20.8501C33.4505 21.538 33.2465 22.2104 32.8644 22.7824C32.4822 23.3544 31.939 23.8002 31.3035 24.0635C30.668 24.3268 29.9687 24.3957 29.294 24.2616C28.6193 24.1274 27.9995 23.7963 27.513 23.3099M4 36L10.0925 29.9075M24.5607 15.4393L30.0619 9.93809M30.0619 9.93809C29.7389 9.6151 29.483 9.23134 29.3082 8.80933C29.1334 8.38733 29.0435 7.93503 29.0435 7.47826C29.0435 7.02149 29.1334 6.56919 29.3082 6.14719C29.483 5.72519 29.7393 5.34175 30.0622 5.01876C30.3852 4.69577 30.7687 4.43957 31.1907 4.26477C31.6127 4.08997 32.065 4 32.5217 4C32.9785 4 33.4308 4.08997 33.8528 4.26477C34.2748 4.43957 34.6583 4.69577 34.9812 5.01876C35.3042 5.34175 35.5604 5.72519 35.7352 6.14719C35.91 6.56919 36 7.02149 36 7.47826C36 7.93503 35.91 8.38733 35.7352 8.80933C35.5604 9.23134 35.3042 9.61478 34.9812 9.93776C34.6583 10.2607 34.2748 10.517 33.8528 10.6918C33.4308 10.8666 32.9785 10.9565 32.5217 10.9565C32.065 10.9565 31.6127 10.8666 31.1907 10.6918C30.7687 10.517 30.3849 10.2611 30.0619 9.93809ZM16.9781 17.1186L22.8814 23.0219M14.0271 20.0696L15.5033 21.5457M11.0762 23.0219L12.551 24.4967" stroke="black" stroke-linecap="round" stroke-linejoin="round"/>
</svg>
