<svg width="40" height="40" viewBox="0 0 40 40" fill="none" xmlns="http://www.w3.org/2000/svg">
<rect width="40" height="40" rx="20" fill="#33CF6A"/>
<path d="M27.0854 12.91C26.1639 11.9842 25.0664 11.25 23.8568 10.7504C22.6472 10.2508 21.3498 9.99574 20.0402 10.0001C14.5528 10.0001 10.0804 14.45 10.0804 19.91C10.0804 21.66 10.5427 23.36 11.407 24.86L10 30L15.2764 28.62C16.7337 29.41 18.3719 29.83 20.0402 29.83C25.5276 29.83 30 25.38 30 19.92C30 17.27 28.9648 14.78 27.0854 12.91ZM20.0402 28.15C18.5528 28.15 17.0955 27.75 15.8191 27L15.5176 26.82L12.3819 27.64L13.2161 24.6L13.0151 24.29C12.1885 22.9771 11.7497 21.4593 11.7487 19.91C11.7487 15.37 15.4673 11.67 20.0301 11.67C22.2412 11.67 24.3216 12.53 25.8794 14.09C26.6509 14.8539 27.2622 15.7626 27.678 16.7634C28.0938 17.7641 28.3057 18.8371 28.3015 19.92C28.3216 24.46 24.603 28.15 20.0402 28.15ZM24.5829 21.99C24.3317 21.87 23.1055 21.27 22.8844 21.18C22.6533 21.1 22.4925 21.06 22.3216 21.3C22.1508 21.55 21.6784 22.11 21.5377 22.27C21.397 22.44 21.2462 22.46 20.995 22.33C20.7437 22.21 19.9397 21.94 18.995 21.1C18.2513 20.44 17.7588 19.63 17.608 19.38C17.4673 19.13 17.5879 19 17.7186 18.87C17.8291 18.76 17.9698 18.58 18.0905 18.44C18.2111 18.3 18.2613 18.19 18.3417 18.03C18.4221 17.86 18.3819 17.72 18.3216 17.6C18.2613 17.48 17.7588 16.26 17.5578 15.76C17.3568 15.28 17.1457 15.34 16.995 15.33H16.5126C16.3417 15.33 16.0804 15.39 15.8492 15.64C15.6281 15.89 14.9849 16.49 14.9849 17.71C14.9849 18.93 15.8794 20.11 16 20.27C16.1206 20.44 17.7588 22.94 20.2513 24.01C20.8442 24.27 21.3065 24.42 21.6683 24.53C22.2613 24.72 22.804 24.69 23.2362 24.63C23.7186 24.56 24.7136 24.03 24.9146 23.45C25.1256 22.87 25.1256 22.38 25.0553 22.27C24.9849 22.16 24.8342 22.11 24.5829 21.99Z" fill="white"/>
</svg>
