<svg width="24" height="24" viewBox="0 0 24 24" fill="none" xmlns="http://www.w3.org/2000/svg">
<path d="M11.9997 12.7082L6.75374 17.9542C6.66041 18.0476 6.54574 18.0976 6.40974 18.1042C6.27374 18.1109 6.15241 18.0609 6.04574 17.9542C5.93908 17.8476 5.88574 17.7296 5.88574 17.6002C5.88574 17.4709 5.93908 17.3529 6.04574 17.2462L11.2917 12.0002L6.04574 6.75423C5.95241 6.6609 5.90241 6.54623 5.89574 6.41023C5.88908 6.27423 5.93908 6.1529 6.04574 6.04623C6.15241 5.93956 6.27041 5.88623 6.39974 5.88623C6.52908 5.88623 6.64708 5.93956 6.75374 6.04623L11.9997 11.2922L17.2457 6.04623C17.3391 5.9529 17.4541 5.9029 17.5907 5.89623C17.7261 5.88956 17.8471 5.93956 17.9537 6.04623C18.0604 6.1529 18.1137 6.2709 18.1137 6.40023C18.1137 6.52956 18.0604 6.64756 17.9537 6.75423L12.7077 12.0002L17.9537 17.2462C18.0471 17.3396 18.0971 17.4546 18.1037 17.5912C18.1104 17.7266 18.0604 17.8476 17.9537 17.9542C17.8471 18.0609 17.7291 18.1142 17.5997 18.1142C17.4704 18.1142 17.3524 18.0609 17.2457 17.9542L11.9997 12.7082Z" fill="black"/>
</svg>
