<svg width="30" height="28" viewBox="0 0 30 28" fill="none" xmlns="http://www.w3.org/2000/svg">
<path d="M14.0483 0.951052C14.3463 0.0269685 15.6537 0.0269713 15.9517 0.951055L18.5731 9.0791C18.7065 9.49294 19.0921 9.77311 19.527 9.77215L28.0672 9.75349C29.0382 9.75137 29.4422 10.9948 28.6554 11.5638L21.7353 16.5685C21.3829 16.8233 21.2356 17.2767 21.3709 17.6899L24.0277 25.8064C24.3298 26.7292 23.2721 27.4977 22.4878 26.9252L15.5896 21.8903C15.2383 21.6339 14.7617 21.6339 14.4104 21.8903L7.5122 26.9252C6.72793 27.4977 5.67021 26.7292 5.97227 25.8064L8.62911 17.6899C8.76439 17.2767 8.6171 16.8233 8.26475 16.5685L1.34455 11.5638C0.557793 10.9948 0.96181 9.75137 1.93276 9.75349L10.473 9.77215C10.9079 9.77311 11.2935 9.49294 11.4269 9.07909L14.0483 0.951052Z" fill="#FFCB05"/>
</svg>
