<svg width="14" height="13" viewBox="0 0 14 13" fill="none" xmlns="http://www.w3.org/2000/svg">
<path d="M6.04827 0.951054C6.34629 0.0269704 7.65371 0.0269713 7.95173 0.951055L8.7862 3.53851C8.91966 3.95235 9.30527 4.23252 9.74011 4.23157L12.4588 4.22562C13.4297 4.2235 13.8338 5.46693 13.047 6.03592L10.844 7.62911C10.4917 7.88393 10.3444 8.33725 10.4797 8.75051L11.3254 11.3343C11.6275 12.2571 10.5698 13.0255 9.78552 12.4531L7.58955 10.8503C7.23832 10.5939 6.76168 10.5939 6.41045 10.8503L4.21448 12.4531C3.43022 13.0255 2.3725 12.2571 2.67455 11.3343L3.52032 8.75051C3.6556 8.33725 3.50831 7.88393 3.15596 7.62911L0.95301 6.03592C0.166248 5.46693 0.570263 4.2235 1.54121 4.22562L4.25989 4.23157C4.69473 4.23252 5.08034 3.95235 5.2138 3.53851L6.04827 0.951054Z" fill="#FFCB05"/>
</svg>
