<svg width="35" height="35" viewBox="0 0 35 35" fill="none" xmlns="http://www.w3.org/2000/svg">
<path d="M27.5284 18.6696H22.7297V22.7405H18.6542V27.5337H22.7297V31.6043H27.5284V27.5337H31.6038V22.7405H27.5284V18.6696Z" fill="#84F3A4"/>
<path fill-rule="evenodd" clip-rule="evenodd" d="M22.3335 18.6696C22.3335 18.4511 22.5109 18.2739 22.7297 18.2739H27.5284C27.7472 18.2739 27.9245 18.4511 27.9245 18.6696V22.3448H31.6038C31.8226 22.3448 32 22.522 32 22.7405V27.5337C32 27.7522 31.8226 27.9294 31.6038 27.9294H27.9245V31.6043C27.9245 31.8228 27.7472 32 27.5284 32H22.7297C22.5109 32 22.3335 31.8228 22.3335 31.6043V27.9294H18.6542C18.4354 27.9294 18.258 27.7522 18.258 27.5337V22.7405C18.258 22.522 18.4354 22.3448 18.6542 22.3448H22.3335V18.6696ZM23.1258 19.0653V22.7405C23.1258 22.9591 22.9484 23.1362 22.7297 23.1362H19.0503V27.138H22.7297C22.9484 27.138 23.1258 27.3151 23.1258 27.5337V31.2086H27.1322V27.5337C27.1322 27.3151 27.3096 27.138 27.5284 27.138H31.2077V23.1362H27.5284C27.3096 23.1362 27.1322 22.9591 27.1322 22.7405V19.0653H23.1258Z" fill="black"/>
<path fill-rule="evenodd" clip-rule="evenodd" d="M5.29437 3.79138C4.896 3.79138 4.51395 3.94945 4.23225 4.23083C3.95056 4.51219 3.7923 4.8938 3.7923 5.29172V26.148C3.7923 26.5459 3.95057 26.9276 4.23225 27.2089C4.51393 27.4903 4.89598 27.6483 5.29437 27.6483H15.3644C15.5831 27.6483 15.7605 27.8255 15.7605 28.044C15.7605 28.2625 15.5831 28.4397 15.3644 28.4397H5.29437C4.68589 28.4397 4.10231 28.1983 3.67201 27.7685C3.24172 27.3387 3 26.7557 3 26.148V5.29172C3 4.68391 3.24173 4.10101 3.672 3.67123C4.10229 3.24145 4.68587 3 5.29437 3H18.7452C19.3532 3.00013 19.9365 3.24137 20.3667 3.67071L24.0012 7.30106C24.431 7.73067 24.6726 8.31324 24.6728 8.92061V15.4212C24.6728 15.6397 24.4954 15.8168 24.2766 15.8168C24.0579 15.8168 23.8805 15.6397 23.8805 15.4212V8.92081C23.8804 8.52319 23.7222 8.14178 23.4409 7.86056L19.8066 4.23049C19.525 3.94948 19.1432 3.79149 18.7452 3.79138H5.29437Z" fill="black"/>
<path d="M9.95072 18.7442C9.20067 18.7442 8.55627 18.5806 8.0175 18.2535C7.47874 17.9159 7.06146 17.4463 6.76566 16.8449C6.48044 16.2329 6.33782 15.5259 6.33782 14.724C6.33782 13.9115 6.48044 13.2151 6.76566 12.6347C7.06146 12.0544 7.47874 11.6059 8.0175 11.2894C8.55627 10.9623 9.20067 10.7987 9.95072 10.7987C10.4261 10.7987 10.8856 10.8884 11.3293 11.0678C11.7836 11.2472 12.1639 11.4951 12.4702 11.8117L12.0899 12.5397C11.7625 12.2232 11.4138 11.9963 11.0441 11.8592C10.6744 11.7114 10.3205 11.6376 9.98241 11.6376C9.12673 11.6376 8.46647 11.9066 8.00166 12.4448C7.5474 12.9724 7.32028 13.7374 7.32028 14.7398C7.32028 15.7317 7.5474 16.5125 8.00166 17.0823C8.46647 17.6415 9.12673 17.9212 9.98241 17.9212C10.3205 17.9212 10.6744 17.8526 11.0441 17.7154C11.4138 17.5677 11.7625 17.3355 12.0899 17.019L12.4702 17.7471C12.1639 18.0531 11.7783 18.2957 11.3135 18.4751C10.8592 18.6545 10.405 18.7442 9.95072 18.7442Z" fill="black"/>
<path d="M14.2101 21.4666V10.9412H15.1767V12.8563H15.0024C15.182 12.2232 15.5253 11.722 16.0324 11.3527C16.5395 10.9834 17.1522 10.7987 17.8705 10.7987C18.5572 10.7987 19.1541 10.9623 19.6611 11.2894C20.1788 11.6165 20.5749 12.0755 20.8496 12.6664C21.1348 13.2573 21.2774 13.959 21.2774 14.7715C21.2774 15.5839 21.1348 16.2909 20.8496 16.8924C20.5749 17.4833 20.184 17.9423 19.677 18.2694C19.1699 18.5859 18.5678 18.7442 17.8705 18.7442C17.1522 18.7442 16.5395 18.5595 16.0324 18.1902C15.5253 17.8209 15.182 17.3303 15.0024 16.7183H15.1767V21.4666H14.2101ZM17.7279 17.937C18.5096 17.937 19.1329 17.6626 19.5977 17.1139C20.0626 16.5653 20.295 15.7844 20.295 14.7715C20.295 13.769 20.0626 12.9935 19.5977 12.4448C19.1329 11.8961 18.5096 11.6217 17.7279 11.6217C16.9462 11.6217 16.3229 11.8961 15.8581 12.4448C15.3933 12.9935 15.1609 13.769 15.1609 14.7715C15.1609 15.7844 15.3933 16.5653 15.8581 17.1139C16.3229 17.6626 16.9462 17.937 17.7279 17.937Z" fill="black"/>
</svg>
