<svg width="24" height="24" viewBox="0 0 24 24" fill="none" xmlns="http://www.w3.org/2000/svg">
<path fill-rule="evenodd" clip-rule="evenodd" d="M7.93009 4.18079C6.96462 4.18079 6.01261 4.453 5.16928 4.96919C2.55918 6.56905 1.64063 10.1409 3.15668 12.9284C3.44035 13.4504 3.94839 14.0773 4.60072 14.7565C5.24941 15.4319 6.0259 16.1438 6.83175 16.8358C8.4433 18.2196 10.1581 19.5114 11.1714 20.2533L11.1717 20.2535C11.4144 20.4316 11.6996 20.5249 11.9993 20.5249C12.2983 20.5249 12.5841 20.432 12.8322 20.2527C13.8455 19.5107 15.5599 18.2193 17.171 16.8358C17.9769 16.1438 18.7534 15.4319 19.4021 14.7565C20.0544 14.0773 20.5624 13.4505 20.8461 12.9285C22.358 10.1408 21.4393 6.56886 18.8291 4.96909C17.9858 4.45297 17.0339 4.18079 16.0685 4.18079C14.6219 4.18079 13.2604 4.76452 12.2368 5.80994L11.9993 6.05247L11.7618 5.80994C10.7382 4.76452 9.37664 4.18079 7.93009 4.18079ZM4.82115 4.41558C5.76573 3.83742 6.83778 3.5293 7.93009 3.5293C9.45136 3.5293 10.8852 4.10286 11.9993 5.12715C13.1133 4.10286 14.5472 3.5293 16.0685 3.5293C17.1608 3.5293 18.2328 3.83742 19.1774 4.41558C22.0996 6.20659 23.0954 10.1624 21.4282 13.2361C21.1025 13.8354 20.5462 14.5125 19.8814 15.2046C19.213 15.9005 18.4195 16.6274 17.6046 17.3272C15.9745 18.727 14.2442 20.0301 13.2249 20.7764L13.2235 20.7775C12.8645 21.0373 12.4421 21.1764 11.9993 21.1764C11.5568 21.1764 11.1336 21.0375 10.7776 20.7762C9.75827 20.0299 8.02817 18.7269 6.39822 17.3272C5.58325 16.6274 4.78977 15.9005 4.12139 15.2046C3.45667 14.5125 2.90047 13.8357 2.57481 13.2364M4.82115 4.41558C1.89899 6.20658 0.903074 10.1626 2.57481 13.2364L4.82115 4.41558ZM5.49176 5.46839C6.23371 5.01476 7.07376 4.77287 7.93009 4.77287C9.43227 4.77287 10.822 5.48983 11.7573 6.71865L11.7582 6.7199L11.9993 7.03979L12.2403 6.7199L12.2413 6.71865C13.1766 5.48969 14.5707 4.77287 16.0685 4.77287C16.9246 4.77287 17.7648 5.01463 18.5031 5.46868C20.8746 6.92097 21.6692 10.1439 20.3063 12.6478C20.0009 13.209 19.4441 13.864 18.78 14.5365C18.1109 15.214 17.3133 15.9286 16.5073 16.6097C14.8949 17.9723 13.234 19.2138 12.4662 19.7772L12.4646 19.7784C12.188 19.9787 11.8063 19.9787 11.5298 19.7784L11.5286 19.7775C10.7605 19.2159 9.09949 17.9755 7.48707 16.6128C6.68101 15.9316 5.88339 15.2168 5.21425 14.5387C4.55027 13.8658 3.99347 13.2101 3.68809 12.6479M5.83992 6.02198C3.78357 7.28512 3.06083 10.1185 4.26985 12.3397C4.52956 12.8179 5.0323 13.4204 5.6874 14.0842C6.33745 14.743 7.11876 15.4437 7.91665 16.118C9.51156 17.4659 11.158 18.6956 11.9209 19.2535C11.9646 19.2849 12.0291 19.285 12.073 19.2538C12.8363 18.6936 14.4828 17.4628 16.0777 16.1149C16.8756 15.4406 17.657 14.7401 18.307 14.0818C18.9622 13.4184 19.4648 12.8169 19.7245 12.3397C20.9337 10.1182 20.2104 7.28085 18.1546 6.02206L18.154 6.0217C17.5176 5.63024 16.7978 5.42437 16.0685 5.42437C14.7919 5.42437 13.5886 6.0338 12.7698 7.10921C12.7696 7.10942 12.7695 7.10964 12.7693 7.10985L11.9993 8.13177L11.2292 7.10985C11.2291 7.10962 11.2289 7.10939 11.2287 7.10916C10.4098 6.03364 9.21072 5.42437 7.93009 5.42437C7.20104 5.42437 6.481 5.6301 5.83992 6.02198ZM5.49176 5.46839L5.49119 5.46874L5.49176 5.46839ZM5.49119 5.46874C3.12017 6.92494 2.32503 10.1436 3.68809 12.6479L5.49119 5.46874Z" fill="#333333"/>
<path d="M11.9989 20.8235C11.6287 20.8235 11.2753 20.7078 10.9766 20.4888C8.94886 19.0054 4.10244 15.3155 2.88663 13.0801C1.2964 10.1588 2.25138 6.40697 5.01114 4.71699C5.90302 4.17156 6.91269 3.88232 7.93919 3.88232C9.47473 3.88232 10.9177 4.50212 11.9989 5.60537C13.0801 4.50212 14.5231 3.88232 16.0586 3.88232C17.0851 3.88232 18.0948 4.17156 18.9867 4.71699C21.7464 6.40697 22.7014 10.1588 21.1154 13.0801C19.8996 15.3155 15.0532 19.0054 13.0254 20.4888C12.7225 20.7078 12.3691 20.8235 11.9989 20.8235ZM7.93919 5.12192C7.14828 5.12192 6.36999 5.34505 5.68005 5.76651C3.4714 7.12181 2.71414 10.1382 3.99727 12.4934C5.12473 14.5677 10.1983 18.3774 11.7254 19.493C11.8853 19.6087 12.1083 19.6087 12.2681 19.493C13.7953 18.3732 18.8689 14.5635 19.9963 12.4934C21.2795 10.1382 20.5222 7.11768 18.3135 5.76651C17.6278 5.34505 16.8495 5.12192 16.0586 5.12192C14.6745 5.12192 13.3788 5.78304 12.5037 6.93174L11.9989 7.60112L11.4941 6.93174C10.619 5.78304 9.32748 5.12192 7.93919 5.12192Z" fill="#333333"/>
</svg>
