<svg width="36" height="36" viewBox="0 0 36 36" fill="none" xmlns="http://www.w3.org/2000/svg">
<path d="M33.36 18C33.36 26.4831 26.4831 33.36 18 33.36C9.51691 33.36 2.64 26.4831 2.64 18C2.64 9.51691 9.51691 2.64 18 2.64C26.4831 2.64 33.36 9.51691 33.36 18Z" stroke="url(#paint0_linear_607_1494)" stroke-width="1.28"/>
<circle cx="17.9992" cy="18.0002" r="12.8" fill="#1B8BAC"/>
<path fill-rule="evenodd" clip-rule="evenodd" d="M23.3356 20.2865L20.8972 20.2862C20.8437 20.1322 20.695 19.9093 20.6113 19.7578C20.4439 19.4543 19.8729 18.3705 19.7316 18.1723L18.4295 20.2623C18.2936 20.475 18.1532 20.7693 17.9964 20.9568C17.9441 20.9018 17.8309 20.7006 17.7817 20.6202L16.4841 18.5115C16.4268 18.4164 16.3268 18.2338 16.2657 18.1647C16.2165 18.2249 16.1595 18.3516 16.1172 18.4226C16.0664 18.5078 16.0178 18.5972 15.9718 18.6837C15.7472 19.1062 15.2669 19.9157 15.0971 20.2847L14.0592 20.2878C14.1046 20.4892 15.1085 21.5252 15.4036 21.8155C15.7292 22.1356 16.0655 22.4247 16.4035 22.7281C16.6022 22.9064 17.8475 23.9468 17.9964 24.0037C18.2288 23.8744 19.32 22.9641 19.5365 22.7759C19.8915 22.4674 20.283 22.1299 20.6166 21.7933C20.7322 21.6736 20.8477 21.5538 20.9633 21.4341L21.1079 21.2795L21.2558 21.279L22.6141 21.2862C22.5542 21.3812 22.4532 21.4864 22.381 21.5806C22.3068 21.6772 22.2023 21.7878 22.1222 21.8779C21.7856 22.2561 21.4047 22.6572 21.0313 22.9881C20.8309 23.1658 20.6602 23.3394 20.4513 23.5151C19.8622 24.0103 19.2575 24.5302 18.6313 24.993C18.4439 25.1315 18.1941 25.3572 17.9964 25.467C17.9342 25.4359 17.9353 25.4295 17.885 25.3885C17.8481 25.3585 17.8107 25.3344 17.7708 25.3024L16.6851 24.4649C16.531 24.3436 16.3986 24.2356 16.2588 24.1214C15.5255 23.5228 14.8699 22.9357 14.2343 22.2709C14.1042 22.1349 13.9566 21.9777 13.8622 21.869C13.2022 21.1082 12.5644 20.2762 12.1384 19.3125C12.1003 19.2263 12.0534 19.1031 12.0171 19.0346L14.4124 19.0274C14.4701 18.9635 14.5923 18.718 14.6396 18.6289L15.3096 17.4145C15.4317 17.2028 16.1311 15.8618 16.2125 15.7931C16.3765 16.0146 16.5024 16.264 16.6514 16.5018C16.7994 16.738 16.9525 16.9824 17.0974 17.2243C17.1641 17.3355 17.9253 18.6065 17.9964 18.6665C18.1091 18.5524 18.3396 18.1226 18.4434 17.9586C18.5896 17.7277 19.681 15.9104 19.7802 15.7936C19.8807 15.889 21.4485 18.8839 21.5803 19.0264L22.748 19.0275C22.8785 18.8512 23.1067 18.182 23.1703 17.9128C23.2794 17.4512 23.3261 16.9821 23.2573 16.4795C23.1946 16.0222 23.0754 15.6363 22.8927 15.2841C22.0655 13.6898 20.2124 13.4717 18.8358 14.3892C18.6028 14.5445 18.3969 14.7046 18.1976 14.8879C18.1365 14.944 18.0606 15.0215 17.9964 15.0702C17.9364 15.0277 17.8827 14.9664 17.8219 14.9118C17.3841 14.5189 16.9426 14.1984 16.3742 14.0102C15.6744 13.7785 14.7974 13.8029 14.1827 14.1462C13.6178 14.4617 13.2145 14.9416 12.9467 15.6242C12.7392 16.1528 12.6596 16.8506 12.7322 17.4338C12.7577 17.6382 12.7856 17.8595 12.8432 18.0333L11.7034 18.0363C11.5968 17.7963 11.584 16.8396 11.613 16.5281C11.8359 14.1375 13.5083 12.4849 15.7907 12.6841C16.235 12.7229 16.6602 12.8568 17.0271 13.0307C17.2952 13.1578 17.5405 13.3041 17.7689 13.488C17.848 13.5517 17.9155 13.6156 17.9964 13.6665C18.0754 13.6184 18.3368 13.3975 18.5693 13.2494C19.6886 12.5365 21.2583 12.4505 22.4182 13.1447C22.8904 13.4273 23.1716 13.7233 23.4753 14.0992C24.0271 14.7823 24.4745 16.008 24.3891 17.2588C24.3198 18.2725 23.9914 19.1326 23.5219 19.9662C23.4647 20.068 23.3711 20.1976 23.3356 20.2865Z" fill="white"/>
<defs>
<linearGradient id="paint0_linear_607_1494" x1="35.7143" y1="3.71428" x2="0.285714" y2="33.4286" gradientUnits="userSpaceOnUse">
<stop stop-color="#FF0080"/>
<stop offset="1" stop-color="#FFCB05"/>
</linearGradient>
</defs>
</svg>
